<?xml version="1.0" encoding="utf-8"?>
<!-- Generator: Adobe Illustrator 18.1.0, SVG Export Plug-In . SVG Version: 6.00 Build 0)  -->
<svg version="1.1" id="Layer_1" xmlns="http://www.w3.org/2000/svg" xmlns:xlink="http://www.w3.org/1999/xlink" x="0px" y="0px"
	 viewBox="0 0 150 200" style="enable-background:new 0 0 150 200;" xml:space="preserve">
<style type="text/css">
	.st0{fill:#006699;}
	.st1{fill:#FFFFFF;}
</style>
<g>
	<path class="st0" d="M147,73.7C147,34.6,114.8,3,75,3C35.2,3,3,34.6,3,73.7c0,29.7,18.6,55.1,45,65.6l26.9,54l26.9-54
		C128.3,128.8,147,103.4,147,73.7z"/>
	<path class="st1" d="M75,200l-29.2-58.4c-13.2-5.5-24.5-14.5-32.7-26.2C4.5,103.1,0,88.7,0,73.7C0,33.1,33.6,0,75,0
		s75,33.1,75,73.7c0,15-4.5,29.4-13.1,41.7c-8.2,11.7-19.5,20.7-32.7,26.2L75,200z M75,5.9C37,5.9,6.1,36.3,6.1,73.7
		c0,27.8,16.9,52.4,43.1,62.8l1.1,0.4L75,186.5l24.7-49.6l1.1-0.4c26.2-10.4,43.1-35.1,43.1-62.8C143.9,36.3,113,5.9,75,5.9z"/>
</g>
</svg>
