<?xml version="1.0" encoding="utf-8"?>
<!-- Generator: Adobe Illustrator 18.1.0, SVG Export Plug-In . SVG Version: 6.00 Build 0)  -->
<svg version="1.1" id="Layer_1" xmlns:ev="http://www.w3.org/2001/xml-events"
	 xmlns="http://www.w3.org/2000/svg" xmlns:xlink="http://www.w3.org/1999/xlink" x="0px" y="0px" viewBox="30.8 53.5 116.3 116"
	 style="enable-background:new 30.8 53.5 116.3 116;" xml:space="preserve">
<text transform="matrix(1 0 0 1 452 4444)" style="fill:#333333; font-family:'Roboto-Black'; font-size:32;">HA</text>
<path style="fill:#FFFFFF;" d="M147.1,86.4c-0.5,8.8-4.5,17-11,22.5l-34.3,29.9l-4.6-5.3l34.3-30c5.1-4.3,8.2-10.7,8.5-17.6
	c0.7-13.2-8.8-24.5-21.1-25.1c-5.7-0.3-11.3,1.7-15.6,5.6l-4.7-5.3c5.8-5.2,13.1-7.8,20.7-7.4C135.5,54.7,148,69.3,147.1,86.4z
	 M110.6,103.4l-30-34.3C76.4,64.1,70,61,63.1,60.6C49.9,59.9,38.6,69.4,38,81.7c-0.3,5.7,1.7,11.3,5.6,15.6l-5.3,4.7
	c-5.2-5.8-7.8-13.2-7.4-20.7c0.9-16.2,15.5-28.7,32.6-27.8c8.8,0.5,17,4.5,22.5,11L116,98.8L110.6,103.4z M41.9,114.4l34.3-29.9
	l4.6,5.3l-34.3,30c-5.1,4.3-8.2,10.7-8.5,17.5c-0.7,13.2,8.8,24.5,21.1,25.1c5.7,0.3,11.3-1.7,15.6-5.6l4.7,5.2
	c-5.8,5.2-13.1,7.9-20.7,7.5C42.5,168.6,30,154,30.9,136.9C31.4,128.1,35.4,119.9,41.9,114.4z M59.7,153.7c3.8,0.2,6.8-0.8,9.5-3.3
	l1.2,1.3c-3,2.7-6.6,3.9-10.8,3.7c-8.8-0.5-15.6-8.4-15.1-17.8c0.3-4.8,2.4-9.3,6-12.3L85,94.7l1.2,1.3l-34.6,30.7
	c-3.2,2.7-5.2,6.8-5.4,11.1C45.8,146.1,51.8,153.3,59.7,153.7z M48.6,92.9c-2.8-3.1-4.1-6.7-3.9-10.8c0.5-8.7,8.6-15.3,18.2-14.8
	c4.8,0.3,9.3,2.4,12.3,6l30.4,34.5l-1.3,1.2L73.9,74.4c-2.7-3.2-6.8-5.2-11.1-5.4c-8.6-0.5-16,5.4-16.4,13.2
	c-0.2,3.6,0.9,6.7,3.4,9.5L48.6,92.9z M117.4,68.8c-3.8-0.2-6.8,0.8-9.5,3.3l-1.2-1.3c3-2.7,6.6-3.9,10.8-3.7
	c9,0.5,15.9,8.5,15.4,17.8c-0.3,5.5-2.3,10.3-5.5,13l-35,30.4l-1.2-1.3l35-30.4c2.8-2.4,4.6-6.8,4.8-11.7
	C131.6,76.4,125.4,69.2,117.4,68.8z M129.2,130.1c2.7,3,3.8,6.2,3.6,10.4c-0.5,8.8-8.4,15.6-17.8,15.1c-4.8-0.2-9.3-2.4-12.3-6
	L72,115.2l1.3-1.2l30.7,34.5c2.7,3.2,6.8,5.2,11.1,5.4c8.4,0.4,15.5-5.6,15.9-13.5c0.2-3.8-0.7-6.5-3.1-9.2L129.2,130.1z M67,119.6
	l30,34.3c4.3,5.1,10.7,8.2,17.5,8.5c13.2,0.7,24.5-8.8,25.1-21.2c0.3-5.7-1.7-11.3-5.6-15.6l5.3-4.7c5.2,5.8,7.8,13.1,7.4,20.7
	c-0.9,16.2-15.5,28.7-32.6,27.8c-8.8-0.5-17-4.5-22.5-11l-29.9-34.3L67,119.6z"/>
</svg>
