<?xml version="1.0" encoding="utf-8"?>
<!-- Generator: Adobe Illustrator 18.1.0, SVG Export Plug-In . SVG Version: 6.00 Build 0)  -->
<svg version="1.1" id="Layer_1" xmlns:ev="http://www.w3.org/2001/xml-events"
	 xmlns="http://www.w3.org/2000/svg" xmlns:xlink="http://www.w3.org/1999/xlink" x="0px" y="0px" viewBox="95.7 80.8 168.4 88.8"
	 enable-background="new 95.7 80.8 168.4 88.8" xml:space="preserve">
<path d="M255.9,122.9v27.3c0,1.5-1.4,2.6-3.2,2.6h-5.5h-8.3h-18.7v-21.4h15.7l-8.3-8.5l0,0l-12.9-13.4l18.2-18.8l31.1,32.2
	L255.9,122.9L255.9,122.9z M213.4,127.6v38.2c0,2.1-2.1,3.8-4.6,3.8h-20v-0.1v-33.9h-17.7v33.9v0.1h-20c-2.5,0-4.6-1.7-4.6-3.8
	v-38.2l0,0h-11.8l45.2-46.8l45.4,46.8C225.3,127.6,213.4,127.6,213.4,127.6z M132.2,122.9l-8.3,8.5h15.7v21.4H121h-8.4h-5.5
	c-1.8,0-3.2-1.2-3.2-2.6v-27.3h-8.2l31.1-32.2l18.3,18.8L132.2,122.9L132.2,122.9z"/>
</svg>
