<?xml version="1.0" encoding="utf-8"?>
<!-- Generator: Adobe Illustrator 18.1.0, SVG Export Plug-In . SVG Version: 6.00 Build 0)  -->
<svg version="1.1" id="Layer_1" xmlns:ev="http://www.w3.org/2001/xml-events"
	 xmlns="http://www.w3.org/2000/svg" xmlns:xlink="http://www.w3.org/1999/xlink" x="0px" y="0px" viewBox="-15.7 60.5 128.4 100"
	 enable-background="new -15.7 60.5 128.4 100" xml:space="preserve">
<path d="M73.2,137.8c0,0-2.3-37.4,12-56.9c13.3,10.1,24.3,19,24.3,19l3.1,32.7L73.2,137.8z M100.4,91.6l-0.6-0.4
	C100,91.4,100.1,91.5,100.4,91.6z M40.8,60.5C55.5,78.5,68.6,92,68.6,92l0.7,45.8l-56.7-6.3C12.5,131.5,11.4,93,40.8,60.5z
	 M58.3,64.6h1.4l0.7,17.6c-0.8-1.1-1.5-1.8-2.4-2.9L58.3,64.6z M-1.9,90.3c6.2,9.7,8.4,13.7,8.4,13.7L7,130.3l-22.5-2.3
	C-15.5,128-18.7,106.5-1.9,90.3z M2.6,96.3l-0.5-0.7C2.4,95.8,2.5,96,2.6,96.3z M3.1,130.7v5.9c-0.5-0.1-1-0.4-1.4-0.6v-5.5
	L3.1,130.7z M61.1,138l0.1,7c-1.4,0.1-2.9,0.2-4.3,0.2v-7.7L61.1,138z M93.8,136.1l1.8-0.2l-0.6,5c-0.6,0.1-1.2,0.2-1.9,0.4
	L93.8,136.1z M105.2,138.7l-0.5,1.6l-0.7,0.2l-6.3,13.6l-3.4,5.9c0,0-71,0.5-74.7,0.3c-1.6,0-6.7-2.7-9.8-5.1
	c-2.2-1.9-6.5-6.7-9.8-12c-1-1.6-2-3.5-2.8-5.6c-5.5-3-6.4-4.2-6.4-4.2l-0.6-2.6c0,0,20.7,15.4,58.8,15.4
	C87.2,146.4,105.2,138.7,105.2,138.7z"/>
</svg>
