<?xml version="1.0" encoding="utf-8"?>
<!-- Generator: Adobe Illustrator 18.1.0, SVG Export Plug-In . SVG Version: 6.00 Build 0)  -->
<svg version="1.1" id="Layer_1" xmlns:ev="http://www.w3.org/2001/xml-events"
	 xmlns="http://www.w3.org/2000/svg" xmlns:xlink="http://www.w3.org/1999/xlink" x="0px" y="0px" viewBox="-107 93 84 116"
	 enable-background="new -107 93 84 116" xml:space="preserve">
<path d="M-24,148.7c0,17.6-14.3,31.9-31.9,31.9c-17.6,0-31.9-14.3-31.9-31.9c0-16,11.9-29.3,27.3-31.5v-4.9h-36.4v91.2
	c0,2.5-2,4.6-4.6,4.6s-4.6-2-4.6-4.6V98.6c0-2.5,2-4.6,4.6-4.6s4.6,2,4.6,4.6v4.6h50.1c2.5,0,4.6,2,4.6,4.6c0,2.5-2,4.6-4.6,4.6
	h-4.6v4.9C-35.9,119.4-24,132.6-24,148.7z M-55.9,125.9c-12.6,0-22.8,10.2-22.8,22.8s10.2,22.8,22.8,22.8
	c12.6,0,22.8-10.2,22.8-22.8S-43.3,125.9-55.9,125.9z M-46.8,153.2h-9.1c-2.5,0-4.6-2-4.6-4.6V135c0-2.5,2-4.6,4.6-4.6
	c2.5,0,4.6,2,4.6,4.6v9.1h4.6c2.5,0,4.6,2,4.6,4.6S-44.3,153.2-46.8,153.2z"/>
</svg>
