<?xml version="1.0" encoding="utf-8"?>
<!-- Generator: Adobe Illustrator 18.1.0, SVG Export Plug-In . SVG Version: 6.00 Build 0)  -->
<svg version="1.1" id="Layer_1" xmlns:ev="http://www.w3.org/2001/xml-events"
	 xmlns="http://www.w3.org/2000/svg" xmlns:xlink="http://www.w3.org/1999/xlink" x="0px" y="0px" viewBox="-6.3 65.9 126.8 97.2"
	 enable-background="new -6.3 65.9 126.8 97.2" xml:space="preserve">
<path d="M104,91.9c9.1,0,16.9,5.6,16.5,8.4c-0.4,2.8-2,6.9-11.1,6.9c-6.4,0-14.6-1.1-18.9-3.4c-0.9,11-7,17.5-6.3,41.7
	c0,13.9-9.7,17.5-23.6,17.5v0h0h0v0c-13.9,0-23.6-3.7-23.6-17.5c0.6-24.2-5.4-30.7-6.3-41.7l0.4-8c0.2-1.4,0.5-2.8,1-4.1
	C19.9,86.6,7.3,67.4,9,66c0.1,0,0.1-0.1,0.2-0.1c2.5-0.5,20,10.8,35.5,9.5c4.6-2.9,10-4.5,15.8-4.6h0h0c5.8,0,11.2,1.7,15.8,4.6
	c16,1.4,34-10.7,35.7-9.4c1.8,1.4-10.9,20.6-22.9,25.7c0.4,1.3,0.7,2.7,1,4.1C93,93.5,98.1,91.9,104,91.9z M39.1,112.7
	c2,0,3.5-1.6,3.5-3.6c0-2-1.6-3.6-3.5-3.6c-1.9,0-3.5,1.6-3.5,3.6C35.5,111.1,37.1,112.7,39.1,112.7z M60.5,75.7
	c-18.7,0-24.1,12.3-24.1,20.6c0,6.8,8.2,8.7,12.4,14.3c4.3,5.5,5.4,22.5,3.5,27.1c-1.9,4.6-7.4,7.4-7.4,12.1c0,6.1,8.5,6.5,15.6,6.5
	c7.1,0,15.6-0.4,15.6-6.5c0-4.6-5.5-7.5-7.4-12.1c-1.9-4.6-0.7-21.5,3.5-27.1c4.3-5.5,12.4-7.5,12.4-14.3
	C84.6,88.1,79.2,75.8,60.5,75.7z M81.9,105.5c-1.9,0-3.5,1.6-3.5,3.6c0,2,1.6,3.6,3.5,3.6c2,0,3.5-1.6,3.5-3.6
	C85.5,107.1,83.9,105.5,81.9,105.5z M60.5,153.6c-4.9,0-10.7-0.3-10.7-4.5c0-3.2,3.8-5.1,5.2-8.3c0.7-1.6,3.1-2.3,5.6-2.3
	s4.9,0.8,5.6,2.3c1.3,3.1,5.2,5.1,5.2,8.3C71.2,153.3,65.4,153.6,60.5,153.6z M8.1,101.2c-8.6,0-1.6-16.7-0.5-18.4
	C7.6,82.8,16.7,101.2,8.1,101.2z M3.1,110.3c-8.1,0-10.2-17.1-9.2-19.1c0,0-0.6,5.6,7.2,9.1C9.8,104.3,6.8,110.3,3.1,110.3z
	 M1.1,112c8.8,4,5.7,10,2.1,10C-5,122-7.1,104.9-6.1,103C-6.1,103-6.8,108.5,1.1,112z M1.1,124.1c8.8,3.9,5.7,10,2.1,10
	c-8.1,0-10.2-17.1-9.2-19.1C-6.1,115.1-6.8,120.6,1.1,124.1z M1.1,136.5c8.8,3.9,5.7,10,2.1,10c-8.1,0-10.2-17.1-9.2-19.1
	C-6.1,127.4-6.8,133,1.1,136.5z M7.4,148.2c1.6,0,2.8-0.9,2.8,0.1l-0.9,10.4c0,2.3-3.7,1.4-3.7,0.3l-1.1-10.7
	C4.5,147.3,5.8,148.2,7.4,148.2z M11.9,134.1c-3.7,0-6.7-6,2.1-10c7.8-3.5,7.2-9.1,7.2-9.1C22.1,117,20,134.1,11.9,134.1z M11.9,122
	c-3.7,0-6.7-6,2.1-10c7.8-3.5,7.2-9.1,7.2-9.1C22.1,104.9,20,122,11.9,122z M11.9,110.3c-3.7,0-6.7-6,2.1-10
	c7.8-3.5,7.2-9.1,7.2-9.1C22.1,93.2,20,110.3,11.9,110.3z M13.9,136.5c7.8-3.5,7.2-9.1,7.2-9.1c1,2-1.1,19.1-9.2,19.1
	C8.2,146.5,5.2,140.4,13.9,136.5z"/>
</svg>
