<?xml version="1.0" encoding="utf-8"?>
<!-- Generator: Adobe Illustrator 18.1.0, SVG Export Plug-In . SVG Version: 6.00 Build 0)  -->
<svg version="1.1" id="Layer_1" xmlns:ev="http://www.w3.org/2001/xml-events"
	 xmlns="http://www.w3.org/2000/svg" xmlns:xlink="http://www.w3.org/1999/xlink" x="0px" y="0px" viewBox="0 59 103.1 120"
	 enable-background="new 0 59 103.1 120" xml:space="preserve">
<path d="M0.6,119.1c-0.6,0.4-0.8,1.3-0.4,2c0,0,0,0,6.5,9.5c0.4,0.6,1.3,0.8,2,0.4c3.1-2.1,3.1-2.1,3.1-2.1L3.6,117L0.6,119.1z
	 M14.8,128.2l6.7,12.3h23.9c0,0,0,0,6.6-4.6c0.7-0.5,1.1-1.4,0.1-2.3c-21.5-16.6-21.5-16.6-21.5-16.6s0,0-9.4-13.7
	c-0.5-0.8-1.3-0.8-2-0.4c-13.6,9.4-13.6,9.4-13.6,9.4c-0.6,0.4-0.8,1.3-0.4,2L14.8,128.2z M102.8,66.1c-0.6-4.4-2.6-7.1-5.2-7.1
	c-0.5,0-0.9,0.1-1.4,0.3c-13,4.7-38.6,20.5-48.8,27.5l-23.3,16l8.1,11.8l7.9-5.5c2-1.4,3.3-3.1,4.4-4.5c0.6-0.8,1.2-1.5,1.7-2
	c10.3-8.6,44.7-23.3,53.1-25.8C103,75.9,103.4,69.9,102.8,66.1z M77.7,149.3H66.2v-5.9h-49v22.1c0,3.4-3,3.7-4,3.7l-1.4,0v9.9h15.7
	c2.6,0,5-1.3,6.4-3.3c1.3,2,3.4,3.3,6,3.3h31.7v-9.9h-1.4c-0.9,0-4-0.3-4-3.7v-2.9L77.7,149.3z"/>
</svg>
