<?xml version="1.0" encoding="utf-8"?>
<!-- Generator: Adobe Illustrator 18.1.0, SVG Export Plug-In . SVG Version: 6.00 Build 0)  -->
<svg version="1.1" id="Layer_1" xmlns:ev="http://www.w3.org/2001/xml-events"
	 xmlns="http://www.w3.org/2000/svg" xmlns:xlink="http://www.w3.org/1999/xlink" x="0px" y="0px" viewBox="-3.8 65.5 112.5 100"
	 enable-background="new -3.8 65.5 112.5 100" xml:space="preserve">
<path d="M106.7,123.5h-18c-1.1,0-2.1-0.9-2.1-2.1c0-1.1,0.9-2.1,2.1-2.1h18c1.1,0,2.1,0.9,2.1,2.1
	C108.8,122.6,107.8,123.5,106.7,123.5z M100.3,96.2l-15.6,9c-0.3,0.2-0.7,0.3-1,0.3c-0.7,0-1.4-0.4-1.8-1c-0.6-1-0.2-2.3,0.8-2.8
	l15.6-9c1-0.6,2.3-0.2,2.8,0.8C101.6,94.4,101.3,95.6,100.3,96.2z M72.1,91.3c-0.4,0.7-1.1,1-1.8,1c-0.4,0-0.7-0.1-1-0.3
	c-1-0.6-1.3-1.8-0.8-2.8l9-15.6c0.6-1,1.8-1.3,2.8-0.8c1,0.6,1.3,1.8,0.8,2.8L72.1,91.3z M77.3,159.1h8.4c1.7,0,3.2,1.1,3.7,2.7
	l1.2,3.7H11.9l1.2-3.7c0.5-1.6,2-2.7,3.7-2.7h8.4v-35.5c0-14.4,11.6-26,26-26s26,11.6,26,26V159.1z M71.8,123.3
	c0-11.4-9.2-20.6-20.6-20.6s-20.6,9.2-20.6,20.6V155h41.1V123.3z M51.7,105.8c0,35.6,10.1,46.1,10.1,46.1H33.3v-27.8
	C33.3,114,41.5,105.8,51.7,105.8z M52.2,87.6c-1.1,0-2.1-0.9-2.1-2.1v-18c0-1.1,0.9-2.1,2.1-2.1c1.1,0,2.1,0.9,2.1,2.1v18
	C54.3,86.7,53.3,87.6,52.2,87.6z M35.2,92.4c-0.3,0.2-0.7,0.3-1,0.3c-0.7,0-1.4-0.4-1.8-1l-9-15.6c-0.6-1-0.2-2.3,0.8-2.8
	c1-0.6,2.3-0.2,2.8,0.8l9,15.6C36.5,90.5,36.2,91.8,35.2,92.4z M21,106c-0.4,0-0.7-0.1-1-0.3l-15.6-9c-1-0.6-1.3-1.8-0.8-2.8
	c0.6-1,1.8-1.3,2.8-0.8l15.6,9c1,0.6,1.3,1.8,0.8,2.8C22.4,105.6,21.7,106,21,106z M18.4,122.1c0,1.1-0.9,2.1-2.1,2.1h-18
	c-1.1,0-2.1-0.9-2.1-2.1c0-1.1,0.9-2.1,2.1-2.1h18C17.4,120,18.4,120.9,18.4,122.1z"/>
</svg>
