<?xml version="1.0" encoding="utf-8"?>
<!-- Generator: Adobe Illustrator 18.1.0, SVG Export Plug-In . SVG Version: 6.00 Build 0)  -->
<svg version="1.1" id="Layer_1" xmlns:ev="http://www.w3.org/2001/xml-events"
	 xmlns="http://www.w3.org/2000/svg" xmlns:xlink="http://www.w3.org/1999/xlink" x="0px" y="0px" viewBox="89.9 60.3 100.5 133.8"
	 enable-background="new 89.9 60.3 100.5 133.8" xml:space="preserve">
<path d="M190.3,83.1l-6.8,34.3c-0.1,0.8-0.4,1.4-0.9,2.1l-55,72.4c-1.6,2-4.3,2.7-6.6,1.3l-28.5-16.5c-2.2-1.3-3.1-4-2.1-6.4
	l36.5-84.8c0.3-0.7,0.8-1.3,1.3-1.8L153,61.6c1.7-1.4,4-1.7,5.9-0.7l28.9,16.7C189.8,78.8,190.8,81,190.3,83.1z M185.3,82.1
	l-28.9-16.7l-24.8,22.4l-36.5,84.7l28.4,16.4l55-72.4L185.3,82.1L185.3,82.1z M157.4,98c-3.9-2.2-5.2-7.2-3-11.1
	c2.2-3.9,7.2-5.2,11.1-3c3.9,2.2,5.2,7.2,3,11.1C166.3,98.9,161.3,100.2,157.4,98z M167.3,118.9l-12.6,21.8
	c-2.4,4.3-8.6,0.8-6.1-3.4l11.6-20.1l-1.4-0.8L126.7,172c-3.3,5.7-11.4,0.8-8.2-4.8l18.9-32.5l-1.4-0.8l-18.8,32.5
	c-3.2,5.4-11.4,1-8.1-4.7l32.1-55.6l-1.6-0.9l-11.6,20.1c-2.4,4.2-8.6,0.7-6.1-3.6l12.7-22c3-5.1,9.3-7,14.3-4.1l14.8,8.7
	C169.1,107.4,170,114.1,167.3,118.9z"/>
</svg>
