<?xml version="1.0" encoding="utf-8"?>
<!-- Generator: Adobe Illustrator 18.1.0, SVG Export Plug-In . SVG Version: 6.00 Build 0)  -->
<svg version="1.1" id="Layer_1" xmlns:ev="http://www.w3.org/2001/xml-events"
	 xmlns="http://www.w3.org/2000/svg" xmlns:xlink="http://www.w3.org/1999/xlink" x="0px" y="0px" viewBox="106.4 72.6 146 100.1"
	 enable-background="new 106.4 72.6 146 100.1" xml:space="preserve">
<path d="M207.2,123.6c-9.5,0-18.4,2.6-26.1,7.1c26.9,4.6,50.2,20.2,64.8,42h-6c-16.3-22.6-42.6-37.7-72.4-38.6h-5.1
	c-21.1,0.5-40.5,8.1-55.9,20.4v-6.1c10.5-7.8,22.6-13.5,35.8-16.6c0,0-0.1-0.1-0.1-0.1c3.8-1.8,3.8-19.7,3.8-24.6c0-0.4,0-0.8,0-1
	c1.5-0.3,3.7-1.9,3.7-1.9s0.6,1.6,1.9,1.9c0,0.1-0.1,0.3-0.1,0.5c-0.7,4.2,0.2,17.5,2.7,22.7c4.7-1,11.4-2.3,18.1-3
	c1.7-4.6,1.7-15.3,1.7-18.4c1-0.5,2-1.1,2.8-1.7c0.5,0.6,1.1,1,1.7,1.3c-0.6,3,0,13.5,1.9,18.2c8-4.4,17.2-6.9,26.9-6.9
	c18.5,0,34.9,8.9,45.2,22.7v8.8C243.6,134.3,226.7,123.6,207.2,123.6z M196.5,98.7c1.3,1.8-1,4.8-3.5,4.8c-0.5,2.2-2.4,3.4-4.5,3.4
	c-0.6,0-1.2-0.2-1.8-0.4c-0.9,0.7-2,1.1-2.9,1c-1.1,0-2-0.6-2.4-1.6c-0.4,0.2-0.9,0.3-1.3,0.3c-1.6-0.1-2.7-1.6-3.4-2.9
	c-0.4,1.4-3.9,3.9-7,3.8c-0.6,0-1.1-0.1-1.6-0.4c1.1-0.8,2.1-1.8,2.7-3.1c2-0.6,3.8-2,4.7-4c0.5-1.1,0.7-2.1,0.6-3.1
	c0.4-0.5,0.7-1,0.9-1.6c0.4-1.4,0-3-1-4.6c0.5-1.3,0.6-3,0.2-4.6c-0.5-2-1.7-3.6-3.3-4.7c0-0.3,0-0.6-0.1-1c0.2,0,0.5,0,0.7,0
	c1.6,0.1,3.1,0.5,3.7,1.4c1.5-1.2,3.5-1.7,5.3-1.6c2.1,0.1,3.8,0.9,4,2.4c0.6-0.2,1.1-0.2,1.7-0.2c3.4,0.1,7,3.3,5.7,5.7
	c3.1,1,4,5.1,2.4,6.7C198.5,96.8,197.7,98.3,196.5,98.7z M173.3,90.4c2.6,3,1.6,4.8,0.2,5.3c1.6,2.1-1.2,5.8-4.3,5.9
	c-0.6,2.6-2.9,4.2-5.4,4.1c-0.7,0-1.5-0.2-2.2-0.5c-0.7,0.5-1.4,0.8-2.1,1c-0.5,0.1-1,0.2-1.5,0.2c-1.3-0.1-2.5-0.7-2.9-2
	c-0.5,0.2-1,0.3-1.5,0.3c-0.1,0-0.2,0-0.3-0.1c-1.7-0.3-3-1.9-3.8-3.5c-0.5,1.7-4.8,4.7-8.5,4.6c-1.2,0-2.3-0.4-3.2-1.2
	c-0.6,1.4-2.8,2.2-5,2.1c-0.6,0-1.1-0.1-1.6-0.2c-1.1-0.3-2.1-0.8-2.7-1.6c-0.3-0.4-0.6-1-0.6-1.6c-0.6,0.3-1.2,0.5-1.9,0.5
	c-3.6-0.1-7-6-4.2-9.4c-2.8-3.5,0.3-11.3,4.9-11.5c0.2-1.4,1-2.7,1.9-3.8c0.4-0.4,0.8-0.8,1.2-1.2c1.8-1.4,3.9-2.2,5.6-2.2
	c0.7,0,1.3,0.2,1.7,0.5c1.5-2.3,5.3-3.5,8.4-3.3c2,0.1,3.7,0.7,4.5,1.7c1.9-1.5,4.3-2.1,6.4-2c2.5,0.1,4.6,1.1,4.9,2.9
	c0.7-0.2,1.4-0.3,2.1-0.3c2.6,0.1,5.3,1.6,6.5,3.5c0.3,0.5,0.6,1,0.7,1.6c0.1,0.6,0.1,1.3-0.3,1.9C174.1,83.4,175.2,88.3,173.3,90.4
	z"/>
</svg>
