<?xml version="1.0" encoding="utf-8"?>
<!-- Generator: Adobe Illustrator 18.1.0, SVG Export Plug-In . SVG Version: 6.00 Build 0)  -->
<svg version="1.1" id="Layer_1" xmlns:ev="http://www.w3.org/2001/xml-events"
	 xmlns="http://www.w3.org/2000/svg" xmlns:xlink="http://www.w3.org/1999/xlink" x="0px" y="0px" viewBox="-9 41.8 120 146.5"
	 enable-background="new -9 41.8 120 146.5" xml:space="preserve">
<path d="M109.7,140.2c-3.5,13.7-13.1,22.1-26,26.8c-13.6,5-27.4,5.3-41.4,1.2c-2.1-0.6-2.6-1.5-2.2-3.5c0.3-1.4,0.1-2.9,0.5-4.2
	c0.4-1.2,1-2.5,1.9-3.2c5.6-4,6.3-11.3,1.1-15.7c-1.5-1.3-2-2.5-1.9-4.4c0.2-2.5,0-5,0-7.7c5.8-1.6,12.2-2.7,12.4-9.7
	c0.3-7.4-6.4-8.6-11.5-10.2c-0.7-4.8-2-9.4-1.9-13.8c0.2-6.7,4.2-11.7,9.8-15.2c4.5-2.8,9.7-3.2,14.9-2.6
	c19.6,2.3,32.5,13.6,40.5,31C110.6,119,112.5,129.5,109.7,140.2z M71.6,161.3c5.2,0.1,9.7-4.3,9.9-9.7c0.1-5.6-4.1-10-9.7-10
	c-5.4,0-9.8,4.2-9.9,9.6C61.7,156.6,66.2,161.2,71.6,161.3z M66.8,87.6c-5.3,0-9.8,4.4-9.8,9.7c-0.1,5.6,4.2,9.9,9.8,9.9
	c5.4,0,9.8-4.2,9.8-9.6C76.7,92.2,72.2,87.6,66.8,87.6z M86.4,112.2c-5.5,0-9.7,4.2-9.7,9.6c-0.1,5.6,4.3,10.1,9.8,10
	c5.3,0,9.7-4.4,9.8-9.7C96.3,116.7,91.9,112.2,86.4,112.2z M37.3,167.3c-0.5,7-2.9,14-4.4,20.9c-0.2,0-0.4,0-0.7,0
	c-1.5-6.2-4-12.3-4.4-18.6c-1.3-20.2-1.9-40.5-2.8-60.7c0-0.4,0.1-0.8,0.2-1.5c4.7,0,9.3,0,14.4,0c0.1,1.1,0.2,2.2,0.2,3.4
	C39,129.7,38.5,148.5,37.3,167.3z M32.2,75.6c0.9-0.1,2.6,0.6,2.7,1.2c1.7,9.1,3.2,18.3,4.8,27.7c-5,0-9.5,0-14.5,0
	c1.5-9.3,2.9-18.3,4.5-27.2C29.8,76.6,31.3,75.7,32.2,75.6z M33.4,73c-3,0.1-5.2-0.6-6.5-3.5c-2.8-6.3-2.2-12.3,0.9-18.2
	c1.6-3.1,3.4-6,5.3-9.5c6.4,8.4,8.4,17.4,4.9,27.3C37.3,71.1,36.3,73,33.4,73z M-7.7,124.8c-1.1-3.7-1.4-7.7-1.2-11.6
	c0.2-6,3.9-10.1,9.9-11.5c7.3-1.6,14.5-0.5,21.3,1.2c0.5,19.2,1.1,38,1.6,57.1c-2.1-1.3-4.3-2.6-6.4-4.1
	C6.3,147.9-3.5,138.5-7.7,124.8z M20.2,122c0-5.3-4.4-9.7-9.8-9.7c-5.6-0.1-10,4.2-10,9.8c0,5.3,4.4,9.7,9.7,9.8
	C15.6,132,20.3,127.3,20.2,122z"/>
</svg>
