<?xml version="1.0" encoding="utf-8"?>
<!-- Generator: Adobe Illustrator 18.1.0, SVG Export Plug-In . SVG Version: 6.00 Build 0)  -->
<svg version="1.1" id="Layer_1" xmlns:ev="http://www.w3.org/2001/xml-events"
	 xmlns="http://www.w3.org/2000/svg" xmlns:xlink="http://www.w3.org/1999/xlink" x="0px" y="0px" viewBox="-36 53.5 175 115.9"
	 enable-background="new -36 53.5 175 115.9" xml:space="preserve">
<path d="M124,123.7c-5.1-2.9-10.4-5.7-15.8-7.9c-9.8-4-15.3-0.5-18.8,8.7c-3.8,10.1-4.1,20.8-4.6,31.5c-0.2,3.8-0.1,7.6-0.2,11.4
	c0,0.7-0.3,1.4-0.4,2.1c-0.3,0-0.5,0-0.8-0.1c-0.1-1.2-0.2-2.3-0.2-3.5c0-10.4,0.4-20.8-0.1-31.1c-0.5-10.8-1.2-21.7-2.8-32.4
	c-1.4-9.2-6-17.2-14.1-22.4c-6.8-4.4-14.2-5.1-21.9-3.1C33.5,79.6,25.9,86.4,19,94.6c-8.9,10.7-15.3,22.8-20.6,35.6
	c-0.3,0.7-0.6,1.4-1,2c-0.2,0.3-0.7,0.4-1.1,0.6c-0.1-0.4-0.3-0.9-0.2-1.2c0.6-1.7,1.6-3.3,2.1-5.1c1.1-4,2.7-7.9,3-12
	c0.8-10-6.1-16.4-16-15c-6.2,0.9-12.4,2.5-18.5,3.8c-0.8,0.2-1.7,0.2-2.6,0.3c-0.1-0.2-0.1-0.5-0.2-0.7c0.5-0.3,1.1-0.6,1.6-0.8
	c9.5-3.5,19-6.8,28.5-10.4c9.5-3.6,18.2-8.8,26.4-14.8c6.1-4.4,11.8-9.4,16.3-15.5c1.3-1.7,2.1-3.8,3.4-5.6c0.6-0.9,1.7-1.6,2.5-2.3
	c0.8,0.8,1.8,1.6,2.2,2.6c1.9,4.5,4.1,8.7,8,11.8c5,3.9,10.6,5,16.7,3.7c6.5-1.4,12-4.9,17.1-9.1c0.5-0.4,0.9-0.8,1.4-1.2
	c1.1-1,2.3-2.2,3.7-1.3c0.9,0.6,1.5,2.1,1.7,3.4c2,10.1,3.9,20.3,7.7,29.9c3.5,8.6,9,15.8,16.2,21.6c7,5.6,14.4,10.9,21.6,16.3
	c0,0.7,0,1.4,0,2C134,129.9,129.1,126.6,124,123.7z M22.1,97.5c1-1.3,1.9-2.5,2.9-3.6c5-5.5,10.6-10,17.7-12.6
	c11.9-4.4,24,0.4,29.8,11.7c3.2,6.3,4.7,13.1,5,20.1c0.1,1.7,0.3,3.5,0.4,5.2c-0.1,0.1-0.3,0.1-0.4,0.2c-1.6-2.3-3.1-4.7-4.7-7
	c-3.2-4.5-7.1-8.3-12-10.9c-8.6-4.5-16.6-2.9-24,2.9c-4.9,3.8-8.4,8.6-10.8,14.3c-0.3,0.7-0.8,1.4-1.2,2.1c-0.2-0.1-0.4-0.1-0.5-0.2
	c0.1-0.6,0.2-1.2,0.3-1.7c0.9-3.6,1.8-7.1,2.6-10.7c0.2-1.1,0.2-2.3,0.2-3.4C27.2,99.8,26.1,98.4,22.1,97.5z"/>
</svg>
