<?xml version="1.0" encoding="utf-8"?>
<!-- Generator: Adobe Illustrator 18.1.0, SVG Export Plug-In . SVG Version: 6.00 Build 0)  -->
<svg version="1.1" id="Layer_1" xmlns:ev="http://www.w3.org/2001/xml-events"
	 xmlns="http://www.w3.org/2000/svg" xmlns:xlink="http://www.w3.org/1999/xlink" x="0px" y="0px" viewBox="-108 90 82 122"
	 enable-background="new -108 90 82 122" xml:space="preserve">
<path d="M-29.8,211c-7.3-0.1-14.6,0-21.9,0c-17.5,0-34.9,0-52.4,0c-0.3,0-0.7,0-1,0c-1.4-0.2-2.2-1.4-1.6-2.8c1.3-2.7,2.7-5.3,4-8
	c0.4-0.9,1.3-1,2.1-1c2.7,0,5.3,0,8,0c0.5,0,1,0,1.6,0c0-3.3,0-6.3,0-9.3c0-2.1,0.6-2.7,2.6-2.7c1.5,0,3,0,4.5,0
	c0.8,0,1.1-0.3,1.1-1.1c0.1-3.3,0.3-6.7,0.5-10c0.5-9.3,0.9-18.6,1.4-27.8c0.3-5.7,0.5-11.5,0.8-17.2c0.4-7.3,0.7-14.5,1.2-21.8
	c0-0.7,0.3-1.4,0.6-1.9c3.1-5,6.2-9.9,9.3-14.9c1.2-1.9,2.7-1.9,3.9-0.1c3.2,5.1,6.4,10.1,9.4,15.2c0.6,1,0.6,2.3,0.7,3.5
	c0.3,5.5,0.5,11.1,0.8,16.6c0.4,7.3,0.8,14.7,1.1,22c0.3,5.2,0.5,10.5,0.8,15.7c0.3,6.9,0.7,13.8,1,20.7c0,0.8,0.3,1,1.1,1
	c1.6,0,3.2,0,4.7,0c1.7,0,2.3,0.7,2.4,2.4c0,2.9,0,5.7,0,8.6c0,0.3,0,0.6,0.1,0.9c0.5,0,1,0.1,1.6,0.1c2.7,0,5.3,0,8,0
	c1.2,0,1.9,0.5,2.4,1.5c1.1,2.3,2.2,4.7,3.5,6.9C-26.5,209.4-27.5,211-29.8,211z M-61.3,163.1c-3.8,0-7.6,0-11.4,0
	c-1.5,0-2.2,0.7-2.2,2.2c0,2.5,0,4.9,0,7.4c0,1.5,0.8,2.2,2.3,2.2c1.9,0,3.7,0,5.6,0c1.9,0,3.8,0,5.7,0c1.6,0,2.3-0.7,2.3-2.3
	c0-2.4,0-4.8,0-7.3C-59.1,163.8-59.8,163.1-61.3,163.1z"/>
</svg>
