<?xml version="1.0" encoding="utf-8"?>
<!-- Generator: Adobe Illustrator 18.1.0, SVG Export Plug-In . SVG Version: 6.00 Build 0)  -->
<svg version="1.1" id="Layer_1" xmlns:ev="http://www.w3.org/2001/xml-events"
	 xmlns="http://www.w3.org/2000/svg" xmlns:xlink="http://www.w3.org/1999/xlink" x="0px" y="0px" viewBox="69 59.5 143.3 133.7"
	 enable-background="new 69 59.5 143.3 133.7" xml:space="preserve">
<path d="M186.4,161.7c-19.8,1.8-29.4-13.4-30.5-26c4.7,13,16,18,25.1,17.4c9.8-0.6,17-5.6,20.9-14.6c3.9-9.1,1.8-17.3-4.6-24.7
	c-3.4-4-7.9-6.9-12.8-8.8c11.3,0,25.7,7.9,27.7,23.9C214.1,145.5,202.4,160.2,186.4,161.7z M180.9,127.5c-1.1,0.3-1.6,0.8-1.7,2
	c-0.1,2-0.3,4.1-0.6,6.7c-1.6-2.1-2.8-3.7-3.9-5.3c-0.6-0.9-1.1-1.3-2.3-1c-1.9,0.6-3.9,0.9-6.4,1.4c1.7-2.1,3-3.7,4.1-5.4
	c0.3-0.6,0.4-1.6,0.1-2.1c-1-1.9-2.2-3.7-3.7-6c2.6,0.9,4.6,1.6,6.6,2.3c0.9,0.3,1.6,0.2,2.1-0.6c1.3-1.7,2.7-3.2,4.4-5.3
	c0,2.6,0.1,4.6,0,6.7c-0.1,1.2,0.3,1.9,1.6,2.3c1.8,0.7,3.6,1.6,5.9,2.6C184.8,126.3,182.9,127,180.9,127.5z M164.9,107.6
	c0.3,0.6,0.7,1.2,1.1,2.1c-0.9,0-1.6,0.1-2.2,0.1c-4.8,0-9.7,0.1-14.4,0c-2-0.1-3,0.7-4,2.3c-2.1,4-4.4,7.9-6.7,11.8
	c-0.4,0.7-0.9,1.3-1.6,2.3c-1.3-2.2-2.4-4.2-3.7-6.2c-1.7-2.8-3.4-5.6-5-8.4c-0.8-1.4-1.7-1.7-3.1-1.7c-5.6,0.1-11.2,0-17.3,0
	c0.9-1.4,1.4-2.6,2.1-3.7c2.2-3.9,4.4-7.8,6.8-11.7c0.7-1.1,0.7-1.9,0-3c-2.7-4.4-5.2-8.9-7.8-13.3c-0.3-0.6-0.6-1.1-1.1-2
	c1,0,1.8,0,2.6,0c5,0,10,0,15.2,0c1.2,0,2-0.3,2.7-1.6c2.4-4.3,4.9-8.7,7.4-12.9c0.3-0.6,0.8-1.2,1.2-2c2.9,5,5.8,9.8,8.4,14.7
	c0.8,1.4,1.8,1.9,3.2,1.9c5.6,0,11.1,0,17.1,0c-0.8,1.4-1.3,2.8-2,3.9c-2.2,3.9-4.4,7.7-6.7,11.6c-0.7,1-0.6,1.8,0,2.9
	C159.9,98.7,162.4,103.2,164.9,107.6z M137.1,117.6c1.6-2.7,2.8-5,4.3-7.7c-3.1,0-5.8,0-8.7,0C134.2,112.6,135.6,115,137.1,117.6z
	 M115.5,105.6c3.3,0,6.3,0,9.7,0c-1.7-2.8-3.2-5.4-4.9-8.2C118.6,100.3,117,102.9,115.5,105.6z M115.6,80.3c1.6,2.8,3,5.3,4.7,8.2
	c1.6-2.9,3-5.4,4.6-8.2C121.6,80.3,118.8,80.3,115.6,80.3z M137,68.3c-1.4,2.6-2.8,4.9-4.3,7.6c3.1,0,5.9,0,8.9,0
	C140,73.2,138.6,70.9,137,68.3z M147.7,86.3c-2-4.8-4.9-7.8-9.7-6.1c-2.8,0-4.8-0.1-6.6,0c-0.7,0-1.4,0.6-1.8,1
	c-2.1,3.4-4.1,7-6.1,10.6c-0.3,0.6-0.2,1.7,0.1,2.2c1,2,2.6,3.9,3.3,6c1.8,4.8,4.9,6.4,9.9,5.7c2.3-0.3,5.2,0.6,7.1-0.4
	c1.8-1,2.6-3.8,3.7-5.8c1.2-2.1,3.4-4.3,3.3-6.4C150.9,90.8,148.7,88.6,147.7,86.3z M158.6,80.3c-3.2,0-6.1,0-9.3,0
	c1.6,2.7,3,5.2,4.7,8.1C155.7,85.5,157,83.1,158.6,80.3z M153.8,97.4c-1.7,2.9-3.1,5.4-4.7,8.1c3.3,0,6.3,0,9.6,0
	C157.1,102.9,155.7,100.3,153.8,97.4z M110.1,126.6c-5.3,0-10.7,0-16.3,0c0,12.8,0,25.4,0,38.1c-2.9,0-5.4,0-8.2,0
	c0-12.7,0-25.2,0-38c-5.7,0-11.1,0-16.7,0c0-2.7,0-5.2,0-7.9c2.1-0.1,4.2-0.2,6.4-0.2c3.3,0,6.7,0,10.1,0c0-4.8,0-9.4,0-14.2
	c2.8,0,5.3,0,8.1,0c0,4.7,0,9.2,0,14.1c5.6,0,10.9,0,16.4,0C110.1,121.3,110.1,123.8,110.1,126.6z M131,142
	c13.7,0,25.7,11.7,25.5,24.9c-0.1,15.1-11.1,26.4-25.7,26.4c-14,0-25.5-11.4-25.5-25.7C105.4,153.4,116.8,142,131,142z M119,171.1
	c1.8,0,3.3-1.4,3.4-3.3c0.1-1.8-1.6-3.6-3.4-3.7c-1.8,0-3.3,1.4-3.4,3.3C115.7,169.4,117.2,171.1,119,171.1z M110.2,159.8
	c4.4-5.8,11.7-6,16.7-0.7c2.8,3,4,6.7,4.2,10.7c0.2,4.3,2.8,7.7,6.9,9.1c8.7,3,16.7-3.2,16.1-12.7c-0.8-12.7-13.1-23.1-26-21.8
	c-8.7,1-17,7.9-18.5,16.3C109.9,160.3,110,160.1,110.2,159.8z M142.8,164.1c1.9,0,3.7,1.9,3.6,3.8c-0.1,1.9-1.8,3.4-3.7,3.4
	c-2-0.1-3.6-1.8-3.4-3.8C139.2,165.5,140.8,164.1,142.8,164.1z"/>
</svg>
