<?xml version="1.0" encoding="utf-8"?>
<!-- Generator: Adobe Illustrator 18.1.0, SVG Export Plug-In . SVG Version: 6.00 Build 0)  -->
<svg version="1.1" id="Layer_1" xmlns:ev="http://www.w3.org/2001/xml-events"
	 xmlns="http://www.w3.org/2000/svg" xmlns:xlink="http://www.w3.org/1999/xlink" x="0px" y="0px" viewBox="2 57.3 100 107.4"
	 enable-background="new 2 57.3 100 107.4" xml:space="preserve">
<path d="M102,104.6c-2.1,0-3.9,0-5.9,0c-0.1,0.9-0.1,1.6-0.2,2.3c-0.1,2.1-1,3.2-3.2,3.2c-2.7-0.1-5.3,0-8,0c-3.1,0-3.9-0.8-4-3.9
	c0-0.4-0.1-0.8-0.2-1.3c-3,0-6,0-9.1,0c0,1,0.1,1.8,0,2.6c-0.3,1.6-1.1,2.7-2.9,2.7c-2.7,0-5.5,0-8.2,0c-3.2,0-3.9-0.7-4-3.9
	c0-0.4-0.1-0.8-0.2-1.5c-1.5,0-3,0-4.4,0c-1.5,0-3,0-4.6,0c-0.1,0.9-0.1,1.6-0.2,2.3c-0.3,1.9-1.2,3.1-3.2,3.1c-2.7,0-5.3,0-8,0
	c-3.1,0-4-0.8-4.1-3.9c0-0.4-0.1-0.8-0.1-1.5c-1.5,0-3,0-4.4,0c-1.5,0-3,0-4.3,0c-0.2,0.3-0.4,0.4-0.4,0.6c-0.5,4.8-0.5,4.8-5.4,4.9
	c-1.8,0-3.7,0-5.5,0c-3.6,0-4.2-0.6-4.4-4c0-0.3-0.1-0.7-0.1-1.3c-1.6,0-3.2,0-5,0c0-4.5,0-8.8,0-13c0-0.6,0.6-1.4,1.1-1.8
	c16.3-10.9,32.5-21.7,48.9-32.7c8.7,5.9,17.4,11.9,26.1,17.8c7.2,4.9,14.5,9.6,21.8,14.3c1.4,0.9,2,1.8,2,3.6
	C101.9,96.8,102,100.6,102,104.6z M51.9,65.8C42,72.4,32.2,79,21.9,85.9c20.2,0,39.8,0,59.3,0c0.1-0.2,0.1-0.3,0.2-0.5
	C71.6,78.9,61.8,72.4,51.9,65.8z M91.1,93.1c-9.5,0-19.1,0-28.6,0c-16.6,0-33.2,0-49.8,0c-3.2,0-4.1,1.2-3.3,4.4
	c28.4,0,56.9,0,85.3,0C95.3,94.1,94.4,93.1,91.1,93.1z M6.7,152.6c0-0.6,0-1.6,0.4-1.9c2.4-1.5,1.8-3.9,1.9-6.1
	c0.6-10.6,1.1-21.2,1.6-31.8c0-0.4,0.1-0.8,0.2-1.4c2.4,0,4.6,0,7.2,0c0.2,3.3,0.4,6.6,0.6,9.9c0.4,8.7,0.7,17.4,1.2,26.1
	c0,0.9,0.9,1.8,1.2,2.7c0.5,1.6,1,3.3,1.6,5.6c2.3,0,5.1,0.1,7.9-0.1c0.3,0,0.7-1.3,0.8-2c0.1-1.6-0.2-3.1,1.6-4.1
	c0.5-0.3,0.5-1.5,0.6-2.2c0.6-11.4,1.1-22.7,1.7-34.1c0-0.6,0.1-1.1,0.2-1.8c2.4,0,4.7,0,7.2,0c0.1,1.2,0.3,2.3,0.3,3.4
	c0.5,10.9,1,21.9,1.5,32.8c0,0.4-0.1,1.1,0.1,1.2c2.3,1.6,2,4,2.6,6.3l8,0.2c0.3,0,0.5,0,0.8,0c0-0.9-0.2-1.9,0-2.8
	c0.2-1,0.8-1.8,1.2-2.8c0.3-0.8,0.8-1.6,0.8-2.4c0.6-10.7,1.1-21.4,1.6-32.1c0.1-1.2,0.2-2.5,0.4-3.9c2.5,0,4.8,0,7.3,0
	c0.2,4.3,0.4,8.6,0.6,12.8c0.4,7.9,0.7,15.8,1,23.6c0,0.4,0,1.1,0.2,1.2c2.8,1.4,1.7,4.2,2.2,6.6c3,0,5.9,0,9.1,0
	c0-1.2-0.1-2.3,0-3.3c0-0.6,0.1-1.6,0.5-1.8c1.9-1.1,1.6-2.9,1.7-4.6c0.6-11,1.1-22,1.7-33.1c0-0.4,0.1-0.8,0.2-1.5
	c2.1,0,4.1-0.1,6.2,0.1c0.5,0.1,1.1,1.4,1.2,2.2c0.5,8.7,0.8,17.4,1.2,26.1c0.1,2.2,0.2,4.5,0.3,6.7c0.1,1.5,0.3,2.7,1.4,4
	c0.9,1.1,0.7,3.2,1,5.2c0.8,0.1,1.8,0.2,2.9,0.3c0,2.8,0,5.7,0,8.7c-31.7,0-63.4,0-95.4,0c0-2.8,0-5.7,0-8.7c1-0.1,2-0.2,3.3-0.4
	C6.7,154.6,6.7,153.6,6.7,152.6z"/>
</svg>
