<?xml version="1.0" encoding="utf-8"?>
<!-- Generator: Adobe Illustrator 18.1.0, SVG Export Plug-In . SVG Version: 6.00 Build 0)  -->
<svg version="1.1" id="Layer_1" xmlns:ev="http://www.w3.org/2001/xml-events"
	 xmlns="http://www.w3.org/2000/svg" xmlns:xlink="http://www.w3.org/1999/xlink" x="0px" y="0px" viewBox="2.6 67.6 96.2 84.3"
	 enable-background="new 2.6 67.6 96.2 84.3" xml:space="preserve">
<path d="M51,67.6l-0.2,0.2l-0.2-0.2L2.6,104.9l8.4,0.2v46.8h5.1h13.6v-24h-5.1c-0.4,0-0.7-0.2-0.8-0.6c-0.1-0.3,0-0.7,0.3-0.9
	L48,110V93H38v-4h9.9V80H53V89h10v4H53v17l23.1,16.4c0.3,0.2,0.4,0.6,0.3,0.9c-0.1,0.3-0.4,0.6-0.8,0.6H70v24h17.2h1.9V105h9.8
	L51,67.6z"/>
</svg>
