<?xml version="1.0" encoding="utf-8"?>
<!-- Generator: Adobe Illustrator 18.1.0, SVG Export Plug-In . SVG Version: 6.00 Build 0)  -->
<svg version="1.1" id="Layer_1" xmlns:ev="http://www.w3.org/2001/xml-events"
	 xmlns="http://www.w3.org/2000/svg" xmlns:xlink="http://www.w3.org/1999/xlink" x="0px" y="0px" viewBox="16.4 65.9 168.2 122.3"
	 enable-background="new 16.4 65.9 168.2 122.3" xml:space="preserve">
<path d="M184.7,171.4c-7.2,0-10.9-2.3-11.8-3c-6-3.7-11.6-3.3-20.4,1.3c-5.9,3.1-15,2.7-22.2-1c-7-3.7-10.4-3.1-18.9,0.6
	c-3.7,1.7-7.2,2.4-10.8,2.4c-3.6,0-7.1-0.8-10.8-2.4c-8-3.6-11.4-4.4-18.8-0.7c-7.1,3.7-16.4,4.1-22.2,1c-9-4.7-14.3-5-20.4-1.3
	c-0.9,0.6-4.6,2.9-11.8,2.9v-3.9v-1.8c5.8,0,8.6-1.9,8.6-1.9l0.2-0.1c9.6-5.9,18.2-3,26,1.1c4.2,2.2,11.7,1.8,17.1-1
	c8.9-4.7,14.2-3.7,23.7,0.4c5.9,2.6,11,2.6,16.9,0c9.4-4.2,14.9-5.2,23.8-0.4c5.4,2.8,12.8,3.2,17.1,1c10.7-5.6,18.3-5.9,26.1-1.1
	l0.2,0.2c0.3,0.2,2.9,1.9,8.4,1.9v1.8L184.7,171.4z M140.8,159.1c-2.8-0.2-5.6-1-8-2.3c-8.2-4.3-13.4-3.9-21.6-0.6v-24.3H90v24.3
	c-8.1-3.3-13.3-3.9-21.6,0.4c-2.4,1.2-5.2,2-8,2.3v-36.8l0,0H46l54.6-56.3l54.6,56.3h-14.3V159.1z M25.2,180c9.6-5.9,18.2-3,26,1.1
	c4.2,2.2,11.7,1.8,17.1-1c8.9-4.7,14.2-3.7,23.7,0.4c5.9,2.7,11,2.7,16.9,0c9.4-4.2,14.9-5.2,23.8-0.4c5.4,2.8,12.8,3.2,17.1,1
	c10.7-5.6,18.3-5.9,26.1-1.1l0.2,0.2c0.3,0.2,2.9,1.9,8.4,1.9v1.8v3.9c-7.2,0-10.9-2.3-11.8-3c-6-3.7-11.6-3.3-20.4,1.3
	c-5.9,3.1-15,2.7-22.2-1c-7-3.7-10.4-3.1-18.9,0.6c-3.7,1.7-7.2,2.4-10.8,2.4s-7.1-0.8-10.8-2.4c-8-3.6-11.4-4.4-18.8-0.7
	c-7.1,3.7-16.4,4.1-22.2,1c-9-4.7-14.3-5-20.4-1.3c-0.9,0.6-4.6,2.9-11.8,2.9v-3.9v-1.8c5.8,0,8.6-1.9,8.6-1.9H25.2z"/>
</svg>
