<?xml version="1.0" encoding="utf-8"?>
<!-- Generator: Adobe Illustrator 18.1.0, SVG Export Plug-In . SVG Version: 6.00 Build 0)  -->
<svg version="1.1" id="Layer_1" xmlns:ev="http://www.w3.org/2001/xml-events"
	 xmlns="http://www.w3.org/2000/svg" xmlns:xlink="http://www.w3.org/1999/xlink" x="0px" y="0px" viewBox="-87 109 124 84"
	 enable-background="new -87 109 124 84" xml:space="preserve">
<path d="M24.9,109.7v11.8H19v-11.8H7.2v11.8H1.4v-11.8h-11.7v11.8v11.8l5.9,5.9v4.8h-41v-4.8l5.9-5.9v-11.8v-11.8h-11.7v11.8h-5.9
	v-11.8H-69v11.8h-5.9v-11.8h-11.7v11.8v11.8l5.9,5.9v35.4l-5.9,5.9v11.8h39.8h7.2h5.2V164c0-5.2,4.2-9.4,9.4-9.4s9.4,4.2,9.4,9.4
	v28.3h5.2h7.2h39.8v-11.8l-5.9-5.9v-35.4l5.9-5.9v-11.8v-11.8H24.9z M-57.2,174.6H-69v-17.7c0-3.3,2.6-5.9,5.9-5.9
	c3.2,0,5.9,2.6,5.9,5.9V174.6z M19,174.6H7.2v-17.7c0-3.3,2.6-5.9,5.9-5.9c3.2,0,5.9,2.6,5.9,5.9V174.6z"/>
</svg>
