<?xml version="1.0" encoding="utf-8"?>
<!-- Generator: Adobe Illustrator 18.1.0, SVG Export Plug-In . SVG Version: 6.00 Build 0)  -->
<svg version="1.1" id="Layer_1" xmlns:ev="http://www.w3.org/2001/xml-events"
	 xmlns="http://www.w3.org/2000/svg" xmlns:xlink="http://www.w3.org/1999/xlink" x="0px" y="0px" viewBox="4.5 60.9 94.7 108.7"
	 enable-background="new 4.5 60.9 94.7 108.7" xml:space="preserve">
<path d="M97.5,131c-4.5,9.5-13.3,18.9-19.6,20.9c-2.1,0.7-3.9,0.5-5.4-0.3c-2-1.2-3.1-3.5-3.4-7c-1.1-15.9,2.5-21.2,16.8-24.8
	c0.5-0.2,6.9-2.3,10.6-0.1C98.8,121,100.8,124,97.5,131z M68.1,118.6c-6.2-3.6-5.4-12.8,2.2-26s16-21.9,20.4-19.4
	c6.7,3.9,7.8,20.4,1.2,31.8C85.3,116.6,74.8,122.5,68.1,118.6z M42.7,104c-7.5-4.4-8.3-16.7-1.7-28.2C47.7,64.3,64.2,58,71.7,62.3
	c6.8,3.9,0.8,19.4-5.5,30.3C59.8,103.8,50.3,108.4,42.7,104z M52.4,113.8c4.3,2.5,6.9,7.7,7.6,15.5c1.8,18.3,2.5,30.8-2.7,36.7
	c-2.1,2.3-5,3.5-8.7,3.6c-1.9,0-3.4-0.3-4.6-1c-2.4-1.4-3.1-3.9-3.7-6.5c-2.9-12.6-11.4-15.5-19.1-15.4c-6.2,0.1-10.9-0.2-13.8-1.8
	c-2.3-1.3-3.2-3.4-2.8-6c1-6.1,5.5-15.1,31.6-24C37.7,114.1,45.8,109.9,52.4,113.8z M18.8,115c-3.7,1-7,0.8-9.5-0.7
	c-2.4-1.4-3.9-3.7-4.5-6.7c-1.3-6.4,1.8-15.1,8.4-23.9c0.8-1,7.4-8.4,12.9-5.2c1.8,1.1,3.2,3.2,3.9,6.3
	C34,100.9,29.9,111.9,18.8,115z"/>
</svg>
