<?xml version="1.0" encoding="utf-8"?>
<!-- Generator: Adobe Illustrator 18.1.0, SVG Export Plug-In . SVG Version: 6.00 Build 0)  -->
<svg version="1.1" id="Layer_1" xmlns:ev="http://www.w3.org/2001/xml-events"
	 xmlns="http://www.w3.org/2000/svg" xmlns:xlink="http://www.w3.org/1999/xlink" x="0px" y="0px" viewBox="7 59.1 91 114.9"
	 enable-background="new 7 59.1 91 114.9" xml:space="preserve">
<path d="M32.3,69.4v73.2c-4-1.1-8.6-1.1-13.2,0.4c-10.3,3.4-14,12.9-11.2,21.1c2.7,8.2,10.8,11.9,21.1,8.6
	c8.8-2.8,14.4-10.1,14.3-17.1c0,0,0-40.5,0-63L86.9,85v48.4c-4-1.1-8.6-1.1-13.2,0.4c-10.3,3.4-14,12.9-11.2,21.1
	c2.7,8.2,10.8,11.9,21.1,8.6c8.8-2.8,14.4-10.1,14.3-17.1V59.1L32.3,69.4z"/>
</svg>
