<?xml version="1.0" encoding="utf-8"?>
<!-- Generator: Adobe Illustrator 18.1.0, SVG Export Plug-In . SVG Version: 6.00 Build 0)  -->
<svg version="1.1" id="Layer_1" xmlns:ev="http://www.w3.org/2001/xml-events"
	 xmlns="http://www.w3.org/2000/svg" xmlns:xlink="http://www.w3.org/1999/xlink" x="0px" y="0px" viewBox="82.5 75.1 116 101.6"
	 enable-background="new 82.5 75.1 116 101.6" xml:space="preserve">
<path d="M163.7,131.7h5.8v-5.9c0-3.9,0-3.9,2-3.9c2,0,2,0,2,3.9v5.9h5.8c3.8,0,3.8,0,3.8,2c0,2,0,2-3.8,2h-5.8v13.6
	c0,3.9,0,3.9-2,3.9c-2,0-2,0-2-3.9v-13.7h-5.8c-3.8,0-3.8,0-3.8-2C159.9,131.7,159.9,131.7,163.7,131.7z M101.9,131.7h5.8v-5.9
	c0-3.9,0-3.9,2-3.9s2,0,2,3.9v5.9h5.8c3.8,0,3.8,0,3.8,2c0,2,0,2-3.8,2h-5.8v13.6c0,3.9,0,3.9-2,3.9s-2,0-2-3.9v-13.7h-5.8
	c-3.8,0-3.8,0-3.8-2C97.9,131.7,97.9,131.7,101.9,131.7z M194.7,168.8v-39c0-31.2-46.4-31.2-46.4,0v39c-3.8,0-3.8,0-3.8,3.9
	c0,3.9,0,3.9,3.8,3.9h46.4c3.8,0,3.8,0,3.8-3.9C198.4,168.8,198.4,168.8,194.7,168.8z M132.7,168.8v-39c0-31.2-46.4-31.2-46.4,0v39
	c-3.8,0-3.8,0-3.8,3.9c0,3.9,0,3.9,3.8,3.9h46.4c3.8,0,3.8,0,3.8-3.9C136.6,168.8,136.7,168.8,132.7,168.8z M132.7,98.5
	c-3.8,0-3.8,0-3.8-2c0-2,0-2,3.8-2h5.8v-5.9c0-3.9,0-3.9,2-3.9c2,0,2,0,2,3.9v5.9h5.8c3.8,0,3.8,0,3.8,2c0,2,0,2-3.8,2h-5.8v13.7
	c0,3.9,0,3.9-2,3.9c-2,0-2,0-2-3.9V98.5H132.7z M144.2,145.4v-15.7c0-13.7,9.6-23.4,19.4-25.4v-5.9c0-31.2-46.4-31.2-46.4,0v5.9
	c9.6,2,19.4,11.7,19.4,25.4v15.7H144.2z"/>
</svg>
