<?xml version="1.0" encoding="utf-8"?>
<!-- Generator: Adobe Illustrator 18.1.0, SVG Export Plug-In . SVG Version: 6.00 Build 0)  -->
<svg version="1.1" id="Layer_1" xmlns:ev="http://www.w3.org/2001/xml-events"
	 xmlns="http://www.w3.org/2000/svg" xmlns:xlink="http://www.w3.org/1999/xlink" x="0px" y="0px" viewBox="-21.3 49.7 137.6 118.1"
	 enable-background="new -21.3 49.7 137.6 118.1" xml:space="preserve">
<path d="M115.4,161.9c-2.8,8-11.8,5.6-11.8,5.6s-52.6-17.8-58.4-19.7c-5.8-1.8-0.8-7.2-0.8-7.2s0.2-0.2,0.5-0.5c1.3-1.4,5-5.5,9-9.8
	c-1.9-3-1.4-6.2,1-10.1c1.9-3.3,2.5-5.1,1.1-6.9c-0.3-0.4-0.7-0.7-1.2-1l-1.4,1.6l-2.8-1.1l-3.9-1.5l-4.8-1.9l1.6-1.9L13,84.5l0,0
	c-2.7-2.8-2.1-6.8,0.6-9.9s6.5-4.3,9.8-2l0,0l29.2,24.6l1.6-1.9l6.1,10.7l-2.4,2.8c0.9,0.5,1.6,1.1,2.3,1.9c2,2.6,1.9,6.1-0.9,10.6
	c-1.3,2.1-1.9,3.7-1.7,5c3-3.3,5.9-6.3,7.5-8c4.9-5.1,10.1,0.6,10.5,0.6c0,0,33.4,28.3,36.1,30.8
	C114.4,152.1,117.9,155.6,115.4,161.9z M62.3,133.3l39.8,22C86.1,135.5,62.3,133.3,62.3,133.3z M75.6,61.9l-27.2,27l-10.3-9
	l25.5-28.4l0,0c2.9-2.7,6.8-2.1,9.9,0.6C76.7,54.8,77.9,58.7,75.6,61.9L75.6,61.9z M28.5,99.8c2.6,2.1,6.7,5,8,6.2
	c0.8,0.8,1.9,2.3,1.1,4.1c-9,21.2-20.6,36.6-18.6,33.2c-1.9,3.4-3.9,6.7-5.8,10.1c-0.1,0-0.1,0-0.2-0.1c-0.2-0.2-0.4-0.5-0.7-0.7
	c-1.2-1-2.5-2-3.7-3.1c2.2-4.5,4.4-8.9,6.5-13.3c-0.1,0-0.1-0.1-0.2-0.1c-3.2,3.6-6.4,7.2-9.6,10.8c-1.3-1.1-2.5-2.1-3.8-3.1
	c3.1-4.2,6.2-8.4,9.2-12.6c-0.1,0-0.1-0.1-0.2-0.1c-3.9,3.3-7.9,6.6-11.8,9.8c-0.1-0.1-0.2-0.1-0.2-0.2c1.4-3.2,2.7-6.5,4.1-9.7
	c-0.1,0-0.1-0.1-0.2-0.1c-2.8,2.1-5.6,4.2-8.5,6.2c0,0-0.1-0.1-0.1-0.1c1.4-4.1,2.9-8.2,4.3-12.2c-0.1,0-0.1,0-0.2-0.1
	c-2.1,3.7-4.1,7.4-6.2,11.1c-1.5-1.2-2.9-2.3-4.3-3.5c1.5-2.9,3-5.7,4.5-8.6c0,0-0.1-0.1-0.1-0.1c-2,2.4-3.9,4.9-5.9,7.4
	c-1.2-1-2.4-1.9-3.6-2.9c3.9-2.9,7.6-5.8,11.4-8.7c0-0.1-0.1-0.1-0.1-0.2c-4,2.7-8.1,5.4-12.2,8.2c-0.9-0.8-1.9-1.5-2.8-2.3
	C5.7,97.8,18.6,91.9,28.5,99.8z"/>
</svg>
