<?xml version="1.0" encoding="utf-8"?>
<!-- Generator: Adobe Illustrator 18.1.0, SVG Export Plug-In . SVG Version: 6.00 Build 0)  -->
<svg version="1.1" id="Layer_1" xmlns:ev="http://www.w3.org/2001/xml-events"
	 xmlns="http://www.w3.org/2000/svg" xmlns:xlink="http://www.w3.org/1999/xlink" x="0px" y="0px" viewBox="-7.5 73.9 120 83.2"
	 enable-background="new -7.5 73.9 120 83.2" xml:space="preserve">
<path d="M105.2,97.5c0.2,2.1,0.1,4.2-0.3,6.3l6.8,4.4c-0.3,1-0.7,1.9-1.2,2.9c-0.5,0.9-1,1.8-1.5,2.7l-7.7-2.6
	c-1.3,1.7-2.9,3.1-4.7,4.2c0.6,2.8,1.2,5.5,1.7,7.9c-1.9,0.9-3.8,1.6-5.9,2.1l-3.6-7.3c-2.1,0.2-4.2,0.1-6.3-0.4
	c-1.6,2.4-3.1,4.8-4.4,6.8c-1-0.3-1.9-0.7-2.9-1.2c-1-0.5-1.8-1-2.7-1.5l2.6-7.7c-1.7-1.3-3.1-2.9-4.2-4.7c-2.8,0.6-5.5,1.2-7.9,1.7
	c-0.9-1.9-1.6-3.8-2-5.8c2.2-1.1,4.7-2.3,7.3-3.6c-0.2-2.1-0.1-4.2,0.4-6.3c-2.4-1.5-4.8-3.1-6.8-4.4c0.3-1,0.7-1.9,1.2-2.9
	c0.5-1,1-1.9,1.5-2.7c2.3,0.8,5,1.7,7.7,2.6c1.3-1.7,2.9-3.1,4.7-4.2L75.2,76c1.9-0.9,3.8-1.6,5.9-2l3.6,7.3
	c2.1-0.2,4.2-0.1,6.3,0.3l4.4-6.8c1,0.3,1.9,0.7,2.9,1.2c0.9,0.5,1.8,1,2.7,1.5l-2.6,7.7c1.7,1.3,3.1,2.9,4.2,4.7l7.9-1.7
	c0.9,1.9,1.6,3.8,2.1,5.9L105.2,97.5z M90.5,91.8c-4.3-2.1-9.5-0.3-11.5,4c-2.1,4.3-0.3,9.5,4,11.5c4.3,2.1,9.5,0.3,11.5-4
	C96.6,99.1,94.8,93.9,90.5,91.8z M57.1,105.9c1.1,2.3,2,4.7,2.5,7.2l7.7,0.2c0.3,2.1,0.5,4.3,0.5,6.5l-7.6,1.4
	c-0.1,2.5-0.6,5-1.4,7.5l6.5,4c-0.4,1-0.8,2-1.3,3c-0.5,1-1,1.9-1.5,2.9l-7.2-2.6c-1.4,2.2-3.1,4.1-5,5.8l3.6,6.8
	c-1.7,1.4-3.5,2.6-5.4,3.6l-5-5.8c-2.3,1.1-4.7,2-7.2,2.5l-0.2,7.7c-2.1,0.3-4.3,0.5-6.5,0.5l-1.4-7.6c-2.5-0.1-5-0.6-7.5-1.4
	l-4,6.5c-1-0.4-2-0.8-3-1.3c-1-0.5-1.9-1-2.9-1.5l2.6-7.2c-2.2-1.4-4.1-3.1-5.8-5L1,143.3c-1.4-1.7-2.6-3.5-3.7-5.4l5.9-5
	c-1.1-2.3-2-4.7-2.5-7.2l-7.7-0.2c-0.3-2.1-0.5-4.3-0.5-6.5l7.6-1.4c0.1-2.5,0.6-5,1.4-7.5c-2.4-1.5-4.6-2.8-6.5-4
	c0.4-1,0.8-2,1.3-3s1-1.9,1.5-2.9c2.1,0.8,4.6,1.6,7.2,2.6c1.4-2.2,3.1-4.1,5-5.8l-3.6-6.8c1.7-1.4,3.5-2.6,5.4-3.7l5,5.9
	c2.3-1.1,4.7-2,7.2-2.5l0.2-7.7c2.1-0.3,4.3-0.5,6.5-0.5l1.4,7.6c2.5,0.1,5,0.6,7.5,1.4l4-6.5c1,0.4,2,0.8,3,1.3
	c1,0.5,1.9,1,2.9,1.5l-2.6,7.2c2.2,1.4,4.1,3.1,5.8,5l6.8-3.6c1.4,1.7,2.6,3.5,3.7,5.4L57.1,105.9z M36.7,105.7
	c-7.6-3.6-16.7-0.5-20.3,7.1c-3.7,7.6-0.5,16.7,7.1,20.3c7.6,3.6,16.7,0.5,20.3-7.1C47.5,118.4,44.3,109.3,36.7,105.7z"/>
</svg>
