<?xml version="1.0" encoding="utf-8"?>
<!-- Generator: Adobe Illustrator 18.1.0, SVG Export Plug-In . SVG Version: 6.00 Build 0)  -->
<svg version="1.1" id="Layer_1" xmlns:ev="http://www.w3.org/2001/xml-events"
	 xmlns="http://www.w3.org/2000/svg" xmlns:xlink="http://www.w3.org/1999/xlink" x="0px" y="0px" viewBox="-3.5 69.8 110 89.6"
	 enable-background="new -3.5 69.8 110 89.6" xml:space="preserve">
<path d="M104.9,110.7l-24,24c-1,1-2.3,1.6-3.8,1.6H27.1L5.6,157.8c-1,1-2.4,1.6-3.8,1.6c-1.4,0-2.7-0.5-3.8-1.6
	c-1-1-1.5-2.2-1.5-3.5c0-0.7,0-16.7,0-17.7c0-1.4,0.5-2.8,1.6-3.9l23.1-23.1c1-1,2.3-1.6,3.8-1.6h41.8c2.9,0,5.3,2.4,5.3,5.3
	c0,2.9-2.4,5.3-5.3,5.3H49.6c-0.6,0-1.1,0.5-1.1,1.1v1.1c0,0.6,0.5,1.1,1.1,1.1h29.1l18.7-18.7c2.1-2.1,5.4-2.1,7.5,0
	C107,105.3,107,108.6,104.9,110.7z M74.5,97.2c-10.3,0-18-3.3-18-6.2c0-0.7,0.5-1.4,1.3-2.1c4,2.3,10.5,3.5,16.7,3.5
	c5.3,0,10.4-0.8,14.2-2.3c0.9-0.4,1.8-0.8,2.5-1.2c0.8,0.7,1.3,1.4,1.3,2.1C92.5,93.9,84.8,97.2,74.5,97.2z M90,86.5
	c-0.5,0.3-1,0.5-1.5,0.8c-3.2,1.4-8.2,2.4-13.9,2.4s-10.7-1-13.9-2.4C60,87,59.5,86.8,59,86.5c-0.5-0.3-0.9-0.6-1.2-0.8
	c-0.8-0.7-1.3-1.4-1.3-2.1c0-0.7,0.5-1.4,1.3-2.1c1.5,0.9,3.4,1.6,5.5,2.1c1,0.3,2.1,0.5,3.2,0.7c2.6,0.4,5.3,0.7,8,0.7
	c2.8,0,5.5-0.2,8-0.7c1.1-0.2,2.1-0.4,3.1-0.7c1.1-0.3,2.1-0.6,3-1c0.9-0.4,1.8-0.8,2.5-1.2c0.8,0.7,1.3,1.4,1.3,2.1
	c0,0.7-0.5,1.4-1.3,2.1C90.8,85.9,90.4,86.2,90,86.5z M90,79c-0.5,0.3-1,0.5-1.5,0.8c-3.2,1.4-8.2,2.4-13.9,2.4s-10.7-1-13.9-2.4
	C60,79.5,59.5,79.2,59,79c-0.5-0.3-0.9-0.6-1.2-0.8c-0.8-0.7-1.3-1.4-1.3-2.1c0-2.9,7.7-6.2,18-6.2s18,3.3,18,6.2
	c0,0.7-0.5,1.4-1.3,2.1C90.8,78.4,90.4,78.7,90,79z"/>
</svg>
