<?xml version="1.0" encoding="utf-8"?>
<!-- Generator: Adobe Illustrator 18.1.0, SVG Export Plug-In . SVG Version: 6.00 Build 0)  -->
<svg version="1.1" id="Layer_1" xmlns:ev="http://www.w3.org/2001/xml-events"
	 xmlns="http://www.w3.org/2000/svg" xmlns:xlink="http://www.w3.org/1999/xlink" x="0px" y="0px" viewBox="-9.4 61.7 120 107"
	 enable-background="new -9.4 61.7 120 107" xml:space="preserve">
<path d="M110.4,72c-2.6,7.6-10.8,19.8-10.8,19.8l-19.7,4.5l-14.6-9.5c0,0,5.8-9.8,7.9-13.2c2.1-3.5,4.3-8.6,5.3-10.7
	c1-2.1,1.9-0.7,2.7,1.6c0.3,0.2,15.4,4.4,19.4,5.7c4,1.4,5.6,3.1,5.6,3.1S111.4,70,110.4,72z M91.7,90.3c0.5,0.6,1.4,0.6,2,0.1
	c0.6-0.5,0.6-1.4,0.1-2c-0.5-0.6-1.4-0.6-2-0.1C91.2,88.8,91.1,89.7,91.7,90.3z M79.9,92.9c0.5,0.6,1.4,0.6,2,0.1
	c0.6-0.5,0.6-1.4,0.1-2c-0.5-0.6-1.4-0.6-2-0.1C79.4,91.4,79.4,92.3,79.9,92.9z M72.9,85.2c-0.5-0.6-1.4-0.6-2-0.1
	c-0.6,0.5-0.6,1.4-0.1,2c0.5,0.6,1.4,0.6,2,0.1C73.4,86.6,73.5,85.8,72.9,85.2z M102.7,81.2c0,0-11-3-15.8-5
	c-4.8-1.9-6.2-4.2-8.3-0.8c-2.2,3.4-5.1,6.6-2.8,8.1c2.3,1.5,4.7,3.1,5.9,3.9c1.2,0.8,1.8,1,5.1,0.2c3.3-0.7,5.5-1.2,8.6-1
	c3.1,0.2,5.1,1.1,6.2-0.6C102.4,84.2,103.8,83,102.7,81.2z M79.5,97.2l20.8-4.7l2.6,2.9l-0.1,2.9l-2-0.1l-0.1,2l-2-0.1l-0.1,2
	l-2-0.1l-0.1,2l-2-0.1l-0.1,2l-2-0.1l-0.1,2l-2-0.1l-0.1,2l-2-0.1l-0.1,2l-2-0.1l-0.1,2l-2-0.1l-0.1,2l-2-0.1l-0.1,2l-2-0.1l-0.1,2
	l-2-0.1L76,122c0,0-3.6-3.6-20.9-18.3l10.7-15.3L79.5,97.2z M68.1,119.8c3.4,3,5.9,5,8.3,7.1c-0.1,0.4,0,0.8,0.3,1.1
	c0.3,0.3,0.8,0.4,1.2,0.3c2.1,1.9,4.3,4.1,7.3,7.3c-0.1,0.4,0,0.9,0.3,1.2c0.3,0.3,0.8,0.4,1.2,0.3c0.5,0.5,0.9,1,1.4,1.5
	c2.1,2.3,3.9,4.3,5.5,5.9c-0.1,0.4,0,0.9,0.3,1.2c0.3,0.3,0.8,0.4,1.2,0.3c4.2,4.5,6,6.3,7.6,7.3c2.3,1.5,3.1,2.2,0.4,4.9
	c-2.7,2.7-5.3,5.3-6.7,6.7c-1.4,1.4-4.2,1.9-4.5-1.4c-0.3-3.3-5.2-10.1-10.7-15c-5.5-5-16.4-14.7-29.2-28.2
	c-12.8-13.5-32-31.5-32-31.5l7.4-7.5c0,0,13.9,13.9,18.8,18.8C51.2,105.1,60.1,112.9,68.1,119.8z M42.1,70.9
	c-1.5-0.3-9.3-1.6-12.9-0.7c-3.6,0.8-7.5,3.6-4.8,6.5c2.7,2.9,3.8,3.4,2.6,4.6c-1.3,1.3-6.6,6.4-7.3,7.2c-0.8,0.8-1.4,0.3-2.5-0.8
	c-1-1-3.4-4.1-7.4-1.1c-6.6,4.8-6,7.8-8.5,10.3c-2.5,2.5-3.6,2.2-4.8,1.1c-1.2-1.2-4-4-5.3-5.3c-1.3-1.3-1.1-2,1.5-4.6
	c2.6-2.6,4.1-1.6,7.4-4.9c1.8-1.8,2.2-6.1,4.5-8.4c2.2-2.2,9.2-8.5,17-9.5c7.8-1,17.6,2.1,22.1,3.9C48.3,71.1,43.7,71.3,42.1,70.9z
	 M61,134.1l-0.1,2l-2-0.1l-0.1,2l-2-0.1l-0.1,2l-2-0.1l-0.1,2l-2-0.1l-0.1,2l-2-0.1l-0.1,2l-2-0.1l-0.1,2l-2-0.1l-0.1,2l-2-0.1
	l-0.1,2l-2-0.1l-0.1,2l-2-0.1l-0.1,2l-2-0.1l-0.1,2l-2-0.1l-0.1,2l-2-0.1l-0.1,2l-2-0.1l-0.1,2l-2-0.1l-0.1,2l-2-0.1l-0.1,2l-2-0.1
	l-0.1,2l-2.9-0.1l-6.9-5.4l29.8-44.2C51.7,125.7,61,134.1,61,134.1z M25.4,153.5c-0.7-0.4-1.6-0.3-2,0.4l-1.8,2.7
	c-0.4,0.7-0.3,1.6,0.4,2c0.7,0.4,1.6,0.3,2-0.4l1.8-2.7C26.2,154.8,26,153.9,25.4,153.5z"/>
</svg>
