<?xml version="1.0" encoding="utf-8"?>
<!-- Generator: Adobe Illustrator 18.1.0, SVG Export Plug-In . SVG Version: 6.00 Build 0)  -->
<svg version="1.1" id="Layer_1" xmlns:ev="http://www.w3.org/2001/xml-events"
	 xmlns="http://www.w3.org/2000/svg" xmlns:xlink="http://www.w3.org/1999/xlink" x="0px" y="0px" viewBox="88 51.8 89.3 125.8"
	 enable-background="new 88 51.8 89.3 125.8" xml:space="preserve">
<path d="M165,177.6v-19.4c0,0,0.2-6.9-4.9-6.9s-5.2,6.9-5.2,6.9v19.4h-12.1v-85l17.8-40.8l16.9,40.7v85.1H165z M160.1,97.1
	c-3.2,0-5.9,2.7-5.9,5.9c0,3.2,2.7,5.9,5.9,5.9s5.9-2.7,5.9-5.9C166.1,99.7,163.4,97.1,160.1,97.1z M88,137.3l18.2-23.2h33v63.5H88
	C88,177.6,88,137.3,88,137.3z M128.2,170.9h4.4v-26.8h-4.4V170.9z M117,170.9h4.4v-26.8H117V170.9z M105.9,170.9h4.4v-26.8h-4.4
	V170.9z M94.7,170.9h4.4v-26.8h-4.4V170.9z"/>
</svg>
