<?xml version="1.0" encoding="utf-8"?>
<!-- Generator: Adobe Illustrator 18.1.0, SVG Export Plug-In . SVG Version: 6.00 Build 0)  -->
<svg version="1.1" id="Layer_1" xmlns:ev="http://www.w3.org/2001/xml-events"
	 xmlns="http://www.w3.org/2000/svg" xmlns:xlink="http://www.w3.org/1999/xlink" x="0px" y="0px" viewBox="5.8 54.6 89.5 100"
	 enable-background="new 5.8 54.6 89.5 100" xml:space="preserve">
<path d="M12.6,147.8c0-7.5,0-14.8,0-22.4c-0.6,0.4-1.1,0.7-1.6,0.9c-1.6,1-2.7,0.8-3.7-0.9c-0.4-0.6-0.7-1.2-1.1-1.9
	c-0.9-1.5-0.6-2.6,0.9-3.6c4.5-3,9.1-5.9,13.6-8.9c3.9-2.6,7.8-5.1,11.7-7.6c0.6-0.4,0.9-0.9,0.9-1.6c0-3.7,0-7.3,0-11
	c0-1.2,0.4-2.1,1.2-3c4-3.9,7.9-7.9,11.8-11.8c0.6-0.6,0.8-1.1,0.8-1.9c-0.1-1.9,0-3.8,0-5.9c-1.5,0-2.9,0-4.3,0
	c-2.1,0-2.6-0.5-2.6-2.6c0-0.8,0-1.5,0-2.3c0-1.3,0.6-1.9,1.9-1.9c1.6,0,3.2,0,5,0c0-1.6,0-3.2,0-4.7c0-1.6,0.6-2.2,2.2-2.2
	c0.9,0,1.7,0,2.6,0c1.3,0,2,0.6,2,2c0,1.6,0,3.2,0,4.9c1.5,0,2.9,0,4.3,0c2.1,0,2.6,0.5,2.6,2.6c0,0.7,0,1.4,0,2.1
	c0,1.6-0.6,2.2-2.1,2.2c-1.5,0-3.1,0-4.8,0c0,2.3,0,4.5,0,6.7c0,0.3,0.4,0.7,0.6,0.9c3.9,3.9,7.8,7.8,11.7,11.6c1,1,1.4,2,1.4,3.4
	c-0.1,3.6,0,7.2,0,10.8c0,0.8,0.3,1.3,1,1.7c8.4,5.4,16.7,10.9,25.1,16.4c1.8,1.2,2,2.1,0.9,4c-0.4,0.7-0.8,1.4-1.2,2
	c-0.8,1.1-1.8,1.4-3,0.7c-0.6-0.3-1.2-0.7-1.9-1.2c0,7.5,0,14.8,0,22.2c0.1,0,0.1,0.1,0.2,0.1c1.1,0,2.5,0,2.8,1.2
	c0.3,1.4,0.3,3,0,4.4c-0.2,1-1.3,1.2-2.4,1.2c-7,0-14,0-21,0c-18.4,0-36.7,0-55.1,0c-0.5,0-1,0-1.5,0c-1.8-0.1-2.3-1-2.3-4.1
	c0-1.7,0.8-2.7,2.3-2.7C11.9,147.8,12.2,147.8,12.6,147.8z M57.4,147.8c0-0.2,0.1-0.4,0.1-0.6c0-5.9,0-11.9,0-17.8
	c0-1.5-1-2.4-2.5-2.4c-2.9,0-5.7,0-8.6,0c-1.9,0-2.8,0.8-2.8,2.7c0,5.6,0,11.3,0,16.9c0,0.3,0,0.7,0.1,1.1
	C48.3,147.8,52.8,147.8,57.4,147.8z M33.3,140.8c0-3,0-5.8,0-8.6c0-2.9-2.3-5.2-5.2-5.2c-3,0-5.2,2.2-5.2,5.2c0,2.5,0,5,0,7.5
	c0,0.3,0,0.7,0.1,1.1C26.4,140.8,29.8,140.8,33.3,140.8z M78.2,140.8c0-3,0-5.9,0-8.7c0-2.8-2.3-5.1-5.2-5.1c-2.9,0-5.2,2.2-5.3,5.1
	c0,2.4,0,4.7,0,7.1c0,0.5,0,1.1,0,1.6C71.3,140.8,74.6,140.8,78.2,140.8z"/>
</svg>
