<?xml version="1.0" encoding="utf-8"?>
<!-- Generator: Adobe Illustrator 18.1.0, SVG Export Plug-In . SVG Version: 6.00 Build 0)  -->
<svg version="1.1" id="Layer_1" xmlns:ev="http://www.w3.org/2001/xml-events"
	 xmlns="http://www.w3.org/2000/svg" xmlns:xlink="http://www.w3.org/1999/xlink" x="0px" y="0px" viewBox="0 56.4 100 101.3"
	 enable-background="new 0 56.4 100 101.3" xml:space="preserve">
<path d="M100,156.7c0,0.2-0.1,0.5-0.1,1c-30.7,0-61.2,0-91.9,0c0.4-0.7,0.7-1.2,1-1.7c6.7-10.1,13.5-20.2,20.1-30.4
	c0.8-1.2,1.6-1.6,3.1-1.6c3.1,0.1,6.6,0.7,9.3-0.4c2.7-1,4.6-3.9,6.8-6c10.3-9.7,20.6-19.4,30.9-29.2c0.9-0.8,1.6-1.1,2.8-0.8
	c5.5,1.4,11.1,2.6,16.6,3.8c1,0.2,1.5,0.6,1.5,1.7C100,114.3,100,135.5,100,156.7z M65.5,95.9c-1.2,1-2.4,1.9-3.6,2.9
	C62.6,95.5,63.5,94.8,65.5,95.9z M56.2,98.6c0-2.3,0-4.6,0-7c0.9,0.3,1.8,0.6,2.9,0.9c-0.9,2.2-1.7,4.2-2.5,6.2
	C56.4,98.6,56.3,98.6,56.2,98.6z M37.1,118.5c-0.3-1-0.5-1.7-0.8-2.6c2-0.5,3.9-0.9,5.8-1.4c0.1,0.1,0.1,0.3,0.2,0.4
	C40.6,116,39,117.2,37.1,118.5z M37.3,102.9c3,1.6,5.9,3.2,8.9,4.7c0,0.2,0,0.3-0.1,0.5c-3.4-0.3-6.9-0.6-10.7-1
	C36.2,105.6,36.7,104.3,37.3,102.9z M50.2,102.8c-2.2-8-4.9-15.8-9.4-23c-1,0.7-1.8,1.3-2.7,1.9c-10.5,7.4-21,14.8-31.5,22.2
	c-2.1,1.5-2.2,1.4-3.7-0.7c-0.7-1-1.3-2-2-2.9c-1.4-2.1-1.4-2.1,0.6-3.5c3.7-2.4,7.4-4.9,11.1-7.3c7.3-4.8,14.6-9.6,21.9-14.5
	c0.6-0.4,1.1-0.8,1.9-1.3c-5.1-6.8-11.3-12.2-18.2-17.2c9.8,1.2,18.2,5.3,24.8,12.8c1.7-1.5,2.7-0.5,3.5,1c0.3,0.5,0.7,1.1,1.1,1.5
	c1.1,1.3,1.5,2.5-0.5,3.4C51.9,84,52.6,93.2,50.2,102.8z"/>
</svg>
