<?xml version="1.0" encoding="utf-8"?>
<!-- Generator: Adobe Illustrator 18.1.0, SVG Export Plug-In . SVG Version: 6.00 Build 0)  -->
<svg version="1.1" id="Layer_1" xmlns:ev="http://www.w3.org/2001/xml-events"
	 xmlns="http://www.w3.org/2000/svg" xmlns:xlink="http://www.w3.org/1999/xlink" x="0px" y="0px" viewBox="127.8 69.2 100.1 114.1"
	 enable-background="new 127.8 69.2 100.1 114.1" xml:space="preserve">
<path d="M227.4,150.8l-14.1-24.5l14.1-24.5c0.7-1.2,0.7-2.8,0-4s-2-2-3.4-2h-28.3l-14.2-24.6c-0.7-1.2-2-2-3.4-2s-2.8,0.8-3.4,2
	l-14.2,24.6h-28.5c-1.4,0-2.8,0.8-3.4,2c-0.9,1.2-0.9,2.8-0.2,4l14,24.5l-14.1,24.5c-0.7,1.2-0.7,2.8,0,4c0.7,1.2,2,2,3.4,2h28.3
	l14.1,24.5c0.7,1.2,2,2,3.4,2s2.8-0.8,3.4-2l14.1-24.5h28.5c1.4,0,2.8-0.8,3.4-2C228.1,153.7,228.1,152.2,227.4,150.8z M158.4,137.6
	l-6.4-11.2l13-22.5h26l12.8,22.1l0.2,0.4l-13,22.5h-26.1L158.4,137.6z M208.6,118.3l-8.3-14.4h16.8L208.6,118.3z M177.9,81.3
	l8.3,14.4h-16.6L177.9,81.3z M155.6,103.9l-8.3,14.4l-8.3-14.4H155.6z M147.2,134.4l8.3,14.4h-16.7L147.2,134.4z M177.9,171.4
	l-8.3-14.4h16.8L177.9,171.4z M200.2,148.8l8.3-14.4l8.3,14.4H200.2z"/>
</svg>
