<?xml version="1.0" encoding="utf-8"?>
<!-- Generator: Adobe Illustrator 18.1.0, SVG Export Plug-In . SVG Version: 6.00 Build 0)  -->
<svg version="1.1" id="Layer_1" xmlns:ev="http://www.w3.org/2001/xml-events"
	 xmlns="http://www.w3.org/2000/svg" xmlns:xlink="http://www.w3.org/1999/xlink" x="0px" y="0px" viewBox="-89 100 120 102"
	 enable-background="new -89 100 120 102" xml:space="preserve">
<path d="M31,160.1V202H-0.9v-41.9H4V155H2v-1h2h4h2v1H8v5.1H31z M-21.3,195c-2.2-1.5-2.9-1.9-5.1-2c-2.2,0-3.7,0.9-5.2,2
	c-1.5,1.1-3.3,1.9-5.6,1.8c-2.3,0-4.1-0.8-5.8-2.3c-1.2-1-3.1-1.7-4.6-1.7c-1.5,0-3.3,0.7-4.6,1.7c-1.8,1.5-3.5,2.3-5.8,2.3
	c-2.3,0-4-0.7-5.5-1.8c-1.5-1.1-3-2-5.2-2c-2.3,0.1-2.9,0.5-5.1,2c-3.5,2.5-8,2.3-10.7,0.2c-2.7-2.1-3.5-2.4-4.4-2.7v-3.4
	c1.1,0,3.2,0.5,4.3,1.7c1,1.2,2.9,2.3,5.1,2.3c1.9,0,3-0.8,4.6-1.7c1.6-1,3.2-2.1,6.2-2.2c2.9,0,4.4,1.3,5.9,2.2
	c1.5,0.9,2.1,1.7,4.8,1.7c1.9,0,3.3-0.6,5-1.8c1.6-1.2,2.7-2,5.6-2.1c2.9,0.1,4,0.9,5.6,2.1c1.6,1.2,3.1,1.8,4.9,1.8
	c2.7,0,3.3-0.8,4.8-1.7c1.5-0.9,3-2.2,5.9-2.2c2.9,0,4.5,1.2,6.1,2.2c1.6,1,2.8,1.7,4.6,1.7c2.1,0,4-1.2,5.1-2.3
	c1-1.2,3.2-1.7,4.3-1.7v3.4c-0.9,0.2-1.8,0.5-4.5,2.7C-13.3,197.3-17.8,197.5-21.3,195z M-15.3,151.2c-1,2.5-4.5,13-5.5,16.8
	c-1.2,4.3-3.3,15.9-3.8,19.8c-3-0.6-6.9,0.7-9.3,3.1c-1.7,1.4-5.1,1-6.1,0c-1.5-1.6-4-3.4-7.6-3.4c-3.6,0-6.1,1.8-7.6,3.4
	c-0.9,1-4.4,1.4-6.1,0c-2.4-2.3-6.3-3.6-9.3-3.1c-0.6-3.9-2.7-15.5-3.8-19.8c-1-3.7-4.5-14.3-5.5-16.8l32.3-11.9L-15.3,151.2z
	 M-37.7,156.7c1.4,0.1,2.7-1.4,2.8-3.3c0.2-2-0.8-3.6-2.2-3.7c-1.4-0.1-2.6,1.4-2.8,3.3C-40.1,154.9-39.1,156.6-37.7,156.7z
	 M-55.4,152.9c-0.1-2-1.4-3.5-2.8-3.3c-1.4,0.1-2.4,1.8-2.2,3.7c0.1,1.9,1.4,3.4,2.8,3.3C-56.2,156.6-55.2,154.9-55.4,152.9z
	 M-47.6,136.7L-81.1,149c-1.7-2.9-2.9-5.2-4.5-7.8l38-13.8l38,13.8c-1.6,2.6-2.9,4.8-4.5,7.8L-47.6,136.7z M-74.7,134.5v-11.6h54.2
	v11.6l-27.1-9.6L-74.7,134.5z M-63.8,112.6h32.3v7.9h-32.3V112.6z M-56.3,101H-39v9.3h-17.3V101z M-85.5,196.3
	c1,0.8,3.8,1.9,6.2,1.9c2.4,0,5.5-0.9,7.3-2.5c1.8-1.6,4.9-1.5,6.7-0.1c1.8,1.4,3.6,2.6,7.2,2.6c3.6,0,5.6-1.2,6.7-2.2
	c1.2-1.2,3.1-1.4,3.8-1.4c0.8,0,2.7,0.2,3.8,1.4c1,1.1,3,2.2,6.6,2.2c3.6,0,5.4-1.2,7.2-2.6c1.8-1.5,4.9-1.6,6.7,0.1
	c1.8,1.6,5,2.5,7.4,2.5c2.4,0,5.1-1.2,6.1-1.9c2-1.5,2.4-2,3.5-1.9v3.5c-1.3,0.3-1.5,0.6-3.5,2.2c-1,0.8-3.8,1.9-6.1,1.9
	c-2.4,0-5.6-0.9-7.4-2.5c-1.8-1.6-4.8-1.5-6.7-0.1c-1.8,1.4-3.6,2.6-7.2,2.6c-3.6,0-5.6-1.1-6.7-2.2c-1.2-1.2-3.1-1.4-3.8-1.4
	c-0.8,0-2.7,0.2-3.8,1.4c-1,1.1-3,2.2-6.7,2.2c-3.6,0-5.4-1.1-7.2-2.6c-1.8-1.5-4.9-1.6-6.7,0.1c-1.8,1.6-5,2.5-7.4,2.5
	c-2.4,0-5.1-1.1-6.1-1.9c-2-1.5-2.2-1.9-3.5-2.2v-3.5C-87.9,194.3-87.5,194.7-85.5,196.3z"/>
</svg>
