<?xml version="1.0" encoding="utf-8"?>
<!-- Generator: Adobe Illustrator 18.1.0, SVG Export Plug-In . SVG Version: 6.00 Build 0)  -->
<svg version="1.1" id="Layer_1" xmlns:ev="http://www.w3.org/2001/xml-events"
	 xmlns="http://www.w3.org/2000/svg" xmlns:xlink="http://www.w3.org/1999/xlink" x="0px" y="0px" viewBox="98.2 61.2 104.5 133.7"
	 enable-background="new 98.2 61.2 104.5 133.7" xml:space="preserve">
<path d="M164.9,143.4c0-3.3,2.6-8.9,6-15.8c3.4,7.1,6,12.4,6,15.8c0,3.3-2.7,5.9-6,5.9C167.6,149.4,164.9,146.7,164.9,143.4z
	 M198.9,178.4v11.4h-5c-0.2,1-1,2.7-2.1,5H98.2V72.2c0,0,9-1.4,9-11c11,0.4,30.3,0.2,30.3,0.2s-0.7,9.8,11.4,9.8
	c0,3.2,0.1,12.6,0.3,25.2h7.6c14.3,0,19.7,11.7,19.7,19.7v5.1h-10.7V116c0-8.4-7.3-8.9-8.9-8.9h-7.4c0.3,17.1,0.7,37.8,1,57.6
	l52.2,3.8v9.7C202.8,178.2,201.3,178.3,198.9,178.4z M141,95l-16,4.9l2.2-25.8h-9.6l2.9,25.8l-17-3.8l-0.7,11.3l17.7-3.1l-3.6,63.8
	h13.7l-5.7-63.8l16.4,4.3L141,95z"/>
</svg>
