<?xml version="1.0" encoding="utf-8"?>
<!-- Generator: Adobe Illustrator 18.1.0, SVG Export Plug-In . SVG Version: 6.00 Build 0)  -->
<svg version="1.1" id="Layer_1" xmlns:ev="http://www.w3.org/2001/xml-events"
	 xmlns="http://www.w3.org/2000/svg" xmlns:xlink="http://www.w3.org/1999/xlink" x="0px" y="0px" viewBox="-80 82 138 138"
	 enable-background="new -80 82 138 138" xml:space="preserve">
<path d="M57.3,150.4c0-2.7-0.3-5.5-0.5-8l0-0.2c-0.1-1.4-0.4-2.9-0.8-4.8c-0.4-1.8-0.9-3.6-1.3-5.2c-0.3-1.2-0.7-2.4-1.1-3.5
	l-0.1-0.2c-0.3-1-0.7-2-1.1-3l-0.2-0.4c-0.7-1.5-1.3-3.1-2.1-4.6l-0.3-0.6c-0.7-1.4-1.5-2.9-2.4-4.2c-0.6-0.9-1-1.7-1.4-2.3
	c-2.6-4-5.8-7.8-9.5-11.4c-3.8-3.7-8-6.9-12.5-9.6c-2.4-1.5-5-2.8-7.9-4c-3-1.3-5.8-2.3-8.5-3c-0.6-0.2-1.3-0.3-2.2-0.5
	c-1.6-0.4-3.3-0.7-5-1c-3.1-0.6-6.5-0.9-10.4-0.9c-0.5,0-0.9,0-1.4,0l0,0.2l-0.1-0.2h-0.1h-0.1c-3.8,0-7.7,0.4-11.6,1.1
	c-0.9,0.2-1.7,0.3-2.6,0.5l-0.3,0.1c-0.2,0-0.4,0.1-0.6,0.1c-0.1,0-0.2,0-0.2,0.1l-0.2,0c-14,3.4-26.3,11.1-35.7,22.1
	c-9.5,11.1-15,24.7-16.1,39.2l0,0.1c-0.1,0.1-0.1,0.1-0.2,0.2l0,0.1l0.1,10.9l0,0.1c0,0.1,0.1,0.1,0.2,0.2l0,0
	C-76.1,188-53,213-22.7,218.2c0,0,0,0,0.1,0c3.9,0.7,7.8,1,11.7,1c0,0,0,0,0,0c0.3,0,0.5,0,0.8,0c15-0.2,29.2-5.1,41-14.3
	c11.4-8.9,19.9-21.4,23.8-35.3l0.1-0.4c0.7-2.6,1.3-5.2,1.7-7.7C57.1,158.2,57.3,154.6,57.3,150.4L57.3,150.4z M27,100.8L27,100.8
	c0.1-0.1,0.1-0.1,0.2-0.1c2,0,12,10.5,14.9,15.7c0.5,0.9,1.1,1.9,1.6,2.8c0.5,0.8,0.9,1.6,1.3,2.3c1.2,2.1,2.3,4.1,2.5,5.2
	c0,0.1,0,0.2,0,0.2c0,0.2,0,0.3-0.1,0.3c0,0-0.4,0.2-2.5-0.6c-1.1-0.4-2.4-1.1-3.9-1.9l-0.3-0.2c-1.7-0.9-3.4-2-4.9-2.9l-0.1,0
	c-0.5-0.4-1.1-0.7-1.7-1.1c-1-0.6-1.9-1-2.7-1.5c-2-1-3.5-1.8-4.3-3.2c-0.1-0.2-0.2-0.4-0.3-0.6c-0.3-0.8-0.7-1.7-1-2.6
	c-0.2-0.4-0.3-0.8-0.5-1.2c-0.3-0.7-0.5-1.2-0.7-1.8c-0.4-1-0.6-2-0.7-2.9c0-0.3-0.1-0.6-0.1-0.9l0-0.2c0-0.5,0-0.8-0.1-1.2
	c0-0.3,0-0.5,0-0.7C23.9,102.3,24.1,102.2,27,100.8z M-40.1,127.2c0,1,0,2,0,2.8c0,0.3-0.1,0.7-0.1,0.9c-0.2,1-0.6,1.1-1.5,1.1
	c-0.2,0-0.4,0-0.6,0c-0.3,0-0.5,0-0.8,0c-0.6,0-1.5,0-2.6,0.4c-0.2,0.1-0.5,0.2-0.7,0.2c-0.3,0.1-0.6,0.1-0.8,0.1l-0.1,0
	c-1.2,0-1.4-0.9-1.4-3.1c0-3.3,1.2-9.2,2-9.8c0.5-0.4,1-0.6,1.4-0.6c0.1,0,0.3,0,0.5,0.1c0.3,0.1,0.5,0.1,0.9,0.2
	c0.2,0.1,0.4,0.1,0.6,0.2l0.3,0.1c0.3,0.1,0.7,0.2,1,0.3c1.5,0.5,2.3,1.1,2.4,1.7l0.2,0l-0.2,0.1c0,0.2,0,0.3-0.1,0.5
	C-40.2,123.6-40.2,125.5-40.1,127.2z M-46.9,145.8c0.7,1.2,1.3,2.4,2,3.6c0.1,0.2,0.3,0.5,0.4,0.7c0.9,1.6,1.7,2.4,2.3,3.1
	c0.8,0.9,1,1.1,0.6,2.1l-0.1,0.2c-0.3,0.6-0.6,1.6-1,2.8c-0.8,2.3-2.2,6.2-2.8,6.4c-0.5,0.2-2.5,1.3-4.8,2.7c-2.7,1.6-5.8,3.4-7.1,4
	c-0.4,0.2-0.7,0.3-0.9,0.5c-0.2,0.1-0.3,0.2-0.5,0.3c-0.2,0.1-0.4,0.3-0.6,0.3c-0.2,0.1-0.4,0.2-0.5,0.2c-0.4,0-0.6-1-0.8-3.3
	c-0.5-7.5-1.1-20.7-0.4-22.8c0.1-0.4,0.2-0.7,0.3-1c0.3-1.2,0.3-1.2,2.9-2.7c0.2-0.1,0.4-0.2,0.6-0.4c1.9-1.1,3.5-1.9,4.7-2.3
	c0.6-0.2,1.2-0.3,1.5-0.3c0.2,0,0.4,0,0.5,0.1C-50,140.2-48.4,143.2-46.9,145.8z M-44.9,138c0.6-0.8,2.4-0.8,3.8-0.8
	c0.4,0,0.7,0,1.1,0c0.1,0,0.1,0,0.2,0c1.2,0.3,1.4,2.9,1.6,5.2c0.1,0.7,0.1,1.3,0.2,1.9c0.3,2.3,0.5,5.3-0.5,6.1
	c-0.2,0.1-0.4,0.2-0.5,0.2c-0.2,0-0.4-0.3-0.7-0.8c-0.1-0.2-0.2-0.3-0.3-0.5c-0.2-0.4-0.5-0.9-0.9-1.5
	C-42.8,145.1-45.5,138.8-44.9,138z M14.5,134.6c0.1-0.1,0.3-0.2,0.6-0.2c1,0,2.7,0.8,4,1.5l0.6,0.3c0.3,0.2,0.6,0.3,0.9,0.4l0,0h0
	c0.3,0.1,0.4,0.2,0.5,0.4c0.1,0.4-0.4,1.2-0.9,2.2c-0.2,0.3-0.3,0.5-0.5,0.8c-0.2,0.4-0.4,0.8-0.6,1.1c-1.2,2.4-4.3,6.5-5.4,6.5
	c-0.1,0-0.1,0-0.2-0.1c0,0-0.2-0.3-0.3-1.2C13,143.1,13.9,135.5,14.5,134.6z M23.6,168.1c-1.7-1.3-4.2-5.9-5.9-9
	c-0.5-0.8-0.9-1.6-1.2-2.1c-0.1-0.2-0.3-0.4-0.4-0.6c-0.9-1.3,0.8-3.3,2.5-5.4c0.5-0.6,0.9-1.1,1.3-1.7c0.8-1.1,2-3.2,3.2-5.5
	c1.5-2.8,3.1-5.8,4.1-6.7c0.2-0.2,0.3-0.2,0.3-0.2c0.1,0,0.2,0,0.3,0c0.8,0,2,0.6,3.6,1.8c0.5,0.4,1,0.7,1.4,1.1l0.4,0.3
	c1.2,1,1.2,7.3,1.2,12.8v0.5c0,1.6,0,3.2,0,4.8c0,1.2,0,2.3,0.1,3.4c0,1.2,0.1,2.4,0.1,3.5c0,0.8,0.1,1.6,0.1,2.3
	c0,1.5,0.1,2.5,0.1,3.4c0,0.8,0,3.3-0.5,3.8c0,0-0.1,0.1-0.2,0.1c-1,0-3.9-1.7-7.9-4.6C25,169.2,24,168.4,23.6,168.1z M34.4,134.4
	l-0.9-0.6c-0.7-0.4-1.4-0.9-2.1-1.4c-0.6-0.4-1.1-0.7-1.5-0.9c-0.6-0.4-1.1-0.7-1.4-1c-0.4-0.4-0.5-0.8-0.5-1.7c0-0.1,0-0.3,0-0.5
	c0.1-0.6,0.1-1.4,0.1-2.3c0-1.1,0.1-2.3,0.2-3.2c0.1-0.4,0.1-0.8,0.2-1c0.1-0.1,0.1-0.2,0.2-0.2c0,0,0.1,0,0.1,0
	c0.5,0.3,2.5,1.4,4.6,2.7c1.7,1,4.8,2.9,6,3.6c0.5,0.3,1,0.7,1.7,1c1.7,1,4.3,2.6,4.4,3.3c0,0.2-0.1,0.4-0.3,0.7
	c-0.5,0.6-1.5,1.1-2.9,1.8c-0.3,0.1-0.5,0.3-0.8,0.4l-0.1,0c-0.1,0.1-0.3,0.2-0.4,0.2c-0.7,0.4-1.2,0.7-1.5,1
	c-0.6,0.4-0.7,0.6-1.3,0.3C37.5,136.5,36.1,135.5,34.4,134.4z M23.8,126.5c-0.1,0.7-0.1,1.3-0.1,1.9c-0.1,2.1-0.2,3.2-1.3,3.4
	c-0.1,0-0.2,0-0.3,0l-0.1,0c-1.9,0.1-4.8-1-5.9-2c-0.7-0.6-0.9-0.9-0.8-2.2c0-0.3,0.1-0.7,0.1-1.2c0-0.4,0.1-0.8,0.1-1.2l0,0
	c0-0.1,0-0.3,0-0.4l0-0.1c0-1,0-1.8-0.1-2.5l0-0.2c-0.2-1.5-0.2-2,0.7-2.3c0,0,0.1,0,0.1,0l0.1,0c0.1,0,0.1,0,0.2,0
	c0.7-0.1,1.5-0.3,2.1-0.5L19,119c1.5-0.4,2.9-0.7,3.9-0.7v-0.2l0,0l0,0.2c0.1,0,0.2,0.1,0.3,0.2C24,119.3,24,123.2,23.8,126.5z
	 M17.1,97.1c0-0.1,0-0.1,0.1-0.2c0.1-0.2,0.2-0.4,0.4-0.6c0.2-0.2,0.5-0.4,0.8-0.7l0.3-0.3c0.1-0.1,0.3-0.1,0.4-0.1
	c0.7,0,1.9,0.8,2.9,1.6c0.2,0.2,0.4,0.3,0.6,0.5c0.2,0.2,0.5,0.3,0.7,0.5c0.1,0.1,0.3,0.2,0.3,0.4c0,0.4-1.2,0.9-2,1.2
	c-0.4,0.2-0.8,0.3-1.1,0.5c-0.4,0.2-1.4-0.2-2.4-1c-0.8-0.7-1.3-1.2-1.3-1.4C17,97.3,17,97.2,17.1,97.1z M8.3,90.8L8.3,90.8
	c0.4,0,1,0.1,1.7,0.3c2.7,0.6,5.2,1.6,5.2,2c0,0.4-0.2,0.5-1,0.6l-0.1,0c-0.2,0-0.4,0.1-0.7,0.1c0,0,0,0-0.1,0
	C12.3,93.9,8.8,91.5,8.3,90.8C8.3,90.8,8.3,90.8,8.3,90.8z M-4.4,96.3c0.3-0.4,0.5-0.8,0.8-1.3c0.9-1.6,2.2-2.8,2.9-3.2
	c0.1-0.1,0.3-0.1,0.5-0.1c0.8,0,2.2,0.4,4,1.3c1.3,0.6,2.7,1.4,4.1,2.3l0.3,0.2c1.2,0.8,2.4,1.7,3.4,2.6c0.5,0.4,1,0.8,1.4,1.2
	c0.9,0.9,1.7,1.7,2.3,2.6l0.1,0.1c0,0.1,0.1,0.1,0.1,0.2l1,1.4c0.7,0.9,1.3,1.8,1.9,2.6l0.3,0.5c1.5,2.2,4.4,6.2,3.5,7l-0.3,0.3
	c-1.2,1-3.9,3.4-5.3,3.4c-0.2,0-0.4-0.1-0.6-0.2c-0.2-0.3-0.5-0.7-0.8-1.2l-0.4-0.6c-0.7-1.1-1.5-2.5-2.6-4
	c-1.9-2.5-3.9-4.5-6.1-5.9c-3.1-2-5.6-2.9-7.5-3.6c-1.7-0.6-2.8-1-3.4-1.8c0,0,0,0-0.1-0.1C-5.7,98.1-5.2,97.5-4.4,96.3z
	 M-19.3,90.1c0.4-0.4,1.5-0.9,4.5-0.9c0.8,0,1.7,0,2.8,0.1l0.2,0c0.6,0.1,1.3,0.2,1.9,0.3c0.3,0.1,0.5,0.1,0.7,0.2
	c0.7,0.3,1.9,0.8,1.6,1.5c0,0.2-0.1,0.4-0.2,0.7c-1.1,3.7-2.5,7-2.9,7.1c-1.3,0-5.2,0.1-6.7,0.1l-0.4,0c0,0-0.1,0-0.1,0
	c0,0-0.1,0-0.1,0c-0.1,0-0.2-0.1-0.2-0.2l0,0c-0.4-0.5-0.5-1.5-0.8-3.2c0-0.3-0.1-0.7-0.1-1c-0.1-0.9-0.3-1.6-0.4-2.2
	C-19.9,91.4-20.1,90.9-19.3,90.1z M-40.8,95c0.9-0.5,2.2-1.2,4.1-2c0.3-0.1,0.6-0.3,1-0.4c-0.1,0.3-0.5,0.7-1,1.3
	c-0.3,0.3-0.5,0.5-0.8,0.8c-1.3,1.1-2.7,1.6-3.5,1.6c-0.3,0-0.7-0.1-0.7-0.4C-41.8,95.8-41.8,95.6-40.8,95z M-42.6,105.5
	c1.5-2.6,5.4-6.6,8.2-8.5c0.5-0.4,1.1-0.8,1.7-1.2c0.5-0.3,0.9-0.6,1.4-0.9c1.5-0.9,3.5-2.1,4.9-2.7c0.6-0.2,0.9-0.3,1-0.3h0.1
	c0,0,0,0,0.1,0c0.1,0,0.3,0.2,0.7,0.8c1.4,2,3.2,6.2,2.6,7.7c-0.1,0.3-0.3,0.5-0.7,0.8c-0.1,0.1-0.2,0.2-0.3,0.2
	c-0.8,0.5-1.9,1.1-3.2,1.7c-1.1,0.5-2.2,1.1-3.4,1.7c-0.5,0.3-0.9,0.5-1.3,0.8c-0.7,0.5-1.3,0.9-1.9,1.5c0,0-0.1,0.1-0.1,0.1
	l-0.5,0.6c-1.1,1.3-2.2,3.2-3.2,4.9c-0.9,1.5-1.9,3.3-2.3,3.3c-0.1,0-0.2,0-0.3,0c-0.8,0-2.2-0.1-3.6-0.5c-1.2-0.3-2.2-0.7-2.9-1.1
	c-0.2-0.2-0.4-0.3-0.6-0.5c-0.3-0.3-0.4-0.6-0.4-1c0-1.2,1.4-3.3,2.7-5.2c0.3-0.5,0.6-0.9,0.9-1.3C-42.9,106-42.7,105.8-42.6,105.5z
	 M-47.1,98.6l0.2-0.1c0.2-0.1,0.3-0.2,0.4-0.3c0.4-0.3,0.6-0.4,1-0.4c0.2,0,0.4,0,0.6,0.1c0.4,0.1,0.7,0.3,0.9,0.5
	c0.2,0.2,0.4,0.4,0.6,0.7c0.1,0.2,0,0.8-0.6,1.7c-0.3,0.5-0.7,0.9-1,1.2c-0.1,0.1-0.2,0.1-0.4,0.1c-0.4-0.1-1-0.3-1.5-0.5
	c-0.2-0.1-0.4-0.1-0.5-0.2l-0.1,0.2l0-0.2c-0.8-0.3-1.4-0.9-1.6-1.1C-48.9,99.7-47.8,99-47.1,98.6z M-71,129.3
	c0.8-3.3,7.2-14.6,10.9-18.5c0.9-1,1.7-1.8,2.3-2.5l0.7-0.8c1.4-1.5,2.6-2.8,3.6-3.6c0.2-0.1,0.3-0.3,0.5-0.4
	c0.3-0.2,0.7-0.3,1.2-0.3c0.6,0,1.2,0.2,1.8,0.4l0.1,0c0,0,0.1,0,0.1,0.1c1.2,0.6,2,1.5,2.1,2.2c0,0.1,0,0.2,0,0.3
	c-0.1,1.2-0.7,2.5-1.3,4c-0.4,0.9-0.8,1.7-1.1,2.7c-0.2,0.5-0.4,1.2-0.5,1.8c-0.2,0.7-0.4,1.5-0.6,2.1c-0.5,1.3-0.9,2.1-1.6,2.4
	c-0.4,0.2-1.3,0.8-2.8,1.7l-11.3,7.2c-1.2,0.7-2.1,1.3-2.5,1.6c-0.5,0.3-0.9,0.6-1.2,0.8c-0.3,0.2-0.6,0.5-0.7,0.5
	C-71.4,131-71.3,130.3-71,129.3z M-64.9,178.1c-0.1,0.5-0.1,1.1-0.2,1.5c-0.1,0.4-0.2,0.8-0.2,1.1c-0.1,0.5-0.4,1-0.7,1
	c-0.1,0-0.1,0-0.2,0c-0.4-0.2-0.8-0.8-1.4-2.2c-0.8-1.7-1.8-4.3-3.6-8.8l-0.5-1.3c-2.8-7.1-2.9-14.5-2.6-21.5l0.1-1.2
	c0-0.9,0.1-1.7,0.1-2.5c0.1-3.9,0.4-4.4,0.7-4.6c0,0,0.1,0,0.1-0.1c0.1-0.1,0.2-0.1,0.3-0.2c0,0,0,0,0.1,0c0.7,0,3.3,1.5,5.4,2.8
	c0.7,0.4,1.3,0.8,1.5,1.1c0.6,0.5,0.6,2.4,0.6,6.4c0,1.7,0,3.8,0.1,6.4c0.1,2.1,0.1,4.2,0.2,6.3c0.1,1.3,0.1,2.6,0.2,3.7
	c0.1,2.7,0.2,5.1,0.1,7.1C-64.7,175.2-64.8,176.8-64.9,178.1z M-63.7,140.3c-0.9,0-2.5-0.9-3.9-1.8l-0.6-0.4
	c-1.4-0.8-2.7-1.6-2.7-2.2c0.2-1.1,12.7-8.5,17.1-10.3c0.7-0.3,1-0.3,1.1-0.3l0-0.2c0,0,0,0,0,0v0.2c0.2,0,0.4,0.1,0.6,0.3
	c0.9,1.1,0.8,4.8,0.4,7c0,0.1-0.1,0.3-0.6,0.8c-1.3,1.2-4.6,3.3-9.5,5.9l-1.5,0.8C-63.5,140.3-63.6,140.3-63.7,140.3z M48,174.4
	c-0.6,1.3-1.2,2.7-1.6,3.8l-0.2,0.4c-1.3,3-2.3,5.6-3.1,5.6c-0.1,0-0.1,0-0.2-0.1l-0.1-0.1c-0.9-0.5-1.6-1-2.1-2.4
	c-0.2-0.7-0.3-1.5-0.3-2.5c-0.1-1.8-0.2-5.9-0.4-10.1c-0.2-4.3-0.4-8.8-0.5-11.1c0-1.3-0.2-3.2-0.4-5.2c-0.4-4.6-1-10.9,0.1-11.5
	l0,0c0.3-0.2,0.6-0.4,1-0.6l0.4-0.2c1.6-1,3.4-1.9,4.8-2.1c0.1,0,0.3,0,0.4,0c0.2,0,0.4,0,0.6,0.1l0,0c1,0.4,1.7,11.7,2,17.2
	c0.1,2.2,0.2,3.9,0.3,4.8c0.1,0.7,0.2,1.4,0.3,2.1C49.5,165.8,50.1,169.9,48,174.4z M51.9,161.5l-1.4-25.8c0,0,1.7,5,2.2,11
	C53.2,152.8,51.9,161.5,51.9,161.5z"/>
</svg>
