<?xml version="1.0" encoding="utf-8"?>
<!-- Generator: Adobe Illustrator 18.1.0, SVG Export Plug-In . SVG Version: 6.00 Build 0)  -->
<svg version="1.1" id="Layer_1" xmlns:ev="http://www.w3.org/2001/xml-events"
	 xmlns="http://www.w3.org/2000/svg" xmlns:xlink="http://www.w3.org/1999/xlink" x="0px" y="0px" viewBox="1 62.7 100 104.6"
	 enable-background="new 1 62.7 100 104.6" xml:space="preserve">
<path d="M98.1,112.9c1.6-3.1,2.5-6.3,2.8-9.7c0.3-3.3-0.4-6.5-1.6-9.6c-0.3-0.9-0.7-1.7-1.2-2.6c-0.8-1.5-2.1-2.4-3.7-2.7
	c-1.2-0.2-2.4-0.3-3.6-0.4c-0.2,0-0.5,0.1-0.6-0.2c0.2-0.2,0.5-0.3,0.7-0.5c0.9-0.6,1.6-1.2,2.4-2c1.4-1.5,2.3-3.3,2.7-5.4
	c0.3-1.9,0.2-3.8-0.3-5.7c-0.3-1.5-0.9-2.8-1.8-4c-1.7-2.2-3.9-3.6-6.7-3.8c-4-0.3-8.1-0.6-12.1-0.8c-2.9-0.2-5.8-0.4-8.7-0.5
	c-4.5-0.3-9.1-0.6-13.6-0.9c-1.4-0.1-2.8-0.2-4.2-0.3c-3-0.2-6-0.4-8.9-0.6c-1.9-0.1-3.8-0.3-5.7-0.4c-1-0.1-2-0.1-2.9,0
	c-1.6,0.2-3.2,0.4-4.8,0.6c-3.7,0.4-7.4,0.8-11.1,1.2c-3.9,0.4-7.8,0.9-11.7,1.3C2.6,66,1.8,66,1.1,66.3C1,67,0.9,67.7,1.2,68.4
	c0.7,0,1.4,0.1,2,0.1C3.7,69.2,3.8,70,4,70.7c0.7,2.9,0.7,5.8,0.4,8.7C4.2,80.7,4,82,3.6,83.3c-0.1,0.2-0.2,0.5-0.3,0.7
	c-0.7,0.2-1.5,0.2-2.1,0.4c-0.2,1.2-0.2,2.2,0,3c5.7,1.3,11.4,2.4,17.2,3.7c0.1,0.3,0.1,0.6,0.1,0.8c0.1,2.3,0.1,4.6-0.3,6.9
	c-0.2,1-0.4,2.1-0.6,3.1c-0.1,0.4-0.3,0.6-0.7,0.7c-0.6,0.1-1.3,0.3-1.9,0.5c-0.3,0.1-0.8,0.1-1.1,0.5c0,0.9-0.1,1.9,0,2.9
	c0.5,0.2,0.9,0.4,1.3,0.6c2.3,1.1,4.5,2.1,6.8,3.2c0.2,0.1,0.5,0.1,0.6,0.5c-0.8,0.1-1.5,0.3-2.2,0.4c-2.7,0.5-5.3,1.1-8,1.8
	c-1.6,0.4-3.1,1.2-4.5,2.1c-1.1,0.7-1.8,1.7-2.2,2.9c-0.2,0.6-0.3,1.2-0.3,1.8c-0.3,2.9-0.1,5.8,0.5,8.7c0.8,3.8,2.6,7,5.6,9.6
	c11.1,9.4,22.1,19,33.2,28.4c0.3,0.2,0.6,0.5,0.9,0.7c0.4-0.2,0.8-0.4,1.1-0.6c11.8-6,23.6-11.9,35.3-17.9c5.3-2.7,10.7-5.4,16-8.1
	c0.4-0.2,0.9-0.3,1.2-0.8c0-0.6,0-1.2,0-1.8c0-0.6,0.1-1.2-0.1-1.8c-0.9-0.4-1.7-0.8-2.6-1.2c-1.4-4.7-1.3-9.3,0-13.9
	c0.9-0.3,1.7-0.6,2.6-0.9c0-1.3,0-2.5,0-3.8c-1-0.5-2-0.5-3-1.1c0.1-0.2,0.2-0.3,0.4-0.5C97.2,114.4,97.7,113.7,98.1,112.9z
	 M10.3,85.9c-1.6-0.3-3.2-0.5-4.8-0.8c-0.3-0.1-0.7-0.1-1.1-0.2C6,79.3,6.1,73.8,4.5,68.3C4.7,68,5,68,5.3,68
	c2.8-0.3,5.6-0.5,8.4-0.8c2.9-0.3,5.7-0.5,8.6-0.8c1.9-0.2,3.8-0.4,5.8-0.5c1.2-0.1,2.3-0.2,3.5-0.3c3.8-0.3,6.5,1.4,8.4,4.6
	c0.7,1.3,1.1,2.7,1.2,4.1c0.2,2.5,0,5-0.9,7.4c-0.7,1.8-1.7,3.4-3,4.7c-2.3,2.2-5,3.1-8.1,2.6C22.9,88,16.6,87,10.3,85.9z
	 M18.6,104.2c-0.1,0-0.2-0.1-0.3-0.3c0.5-2,0.9-4,1.2-6.1c0.3-2.1,0.2-4.1,0.1-6.3c0.3,0,0.6,0,0.8,0.1c3.4,0.7,6.8,1.4,10.2,2.2
	c1.5,0.4,3.1,0.4,4.6,0.3c3.7-0.3,7.4-0.7,11-1.2c0.8-0.1,1.6-0.1,2.5,0.1c2.6,0.5,5.2,1,7.8,1.5c0.4,0.1,0.7,0.2,1.1,0.2
	c0.7,1.7,1.2,3.3,1.5,5c0.6,3.3,0.8,6.7,0.5,10.1c-0.3,3.3-0.8,6.4-1.7,9.6c-0.1,0.3-0.2,0.6-0.3,0.9c0,0.1-0.1,0.1-0.2,0.2
	c-0.1,0-0.2,0-0.3,0C44.4,115,31.5,109.6,18.6,104.2z M45.2,138.8c-0.8,2.9-1.1,5.8-1.1,8.8c0,3.7,0.3,7.3,0.9,11
	c0.1,0.3,0.1,0.6,0.1,0.9c0,0.1,0,0.1,0,0.2c-0.3,0.2-0.5-0.1-0.7-0.3c-2.7-2.2-5.4-4.4-8.1-6.5c-7.9-6.4-15.9-12.8-23.8-19.1
	c-1.5-1.2-2.6-2.7-3.1-4.6c-0.8-2.9-1.1-5.8-0.7-8.8c0.1-0.6,0.3-1.2,0.6-1.7c0.5-0.9,1.3-1.4,2.4-1.5c0.8,0,1.6,0.2,2.3,0.6
	c0.4,0.2,0.8,0.5,1.2,0.7c9.7,6.4,19.5,12.8,29.2,19.2c0.3,0.2,0.6,0.4,0.9,0.6C45.2,138.5,45.2,138.6,45.2,138.8z M95.8,137.1
	c-0.3,0.2-0.5,0.3-0.8,0.4c-12.7,6.1-47.1,22.1-48.3,22.4c-0.2-0.8-0.3-1.5-0.5-2.3c-0.7-4.4-1-8.8-0.7-13.2
	c0.1-1.8,0.4-3.6,0.8-5.4c0.1-0.5,0.4-0.8,0.9-1c2.8-0.9,5.6-1.9,8.4-2.9c12.8-4.4,25.5-8.7,38.3-13.1c0.4-0.1,0.7-0.3,1.3-0.3
	c-0.1,1.3-0.6,2.5-0.6,3.8c-0.1,1.3-0.1,2.6-0.1,3.9c0.1,1.3,0.2,2.6,0.4,3.8C95.2,134.6,95.5,135.8,95.8,137.1z M95.7,110.9
	c-0.5,0.9-1.3,1.3-2.2,1.6c-11.1,2.6-22.3,5.3-33.4,7.9c-0.3,0.1-0.7,0.1-1.2,0.2c0.1-0.4,0.1-0.7,0.2-0.9c0.7-2.7,1.3-5.5,1.6-8.3
	c0.5-5.4,0.2-10.7-1.5-15.8c-0.1-0.2-0.1-0.4-0.2-0.7c0.3-0.1,0.6-0.2,0.9-0.2c2.1-0.3,4.2-0.5,6.3-0.7c2.9-0.3,5.7-0.7,8.6-1
	c2.3-0.3,4.5-0.5,6.8-0.8c2.9-0.3,5.8-0.7,8.7-1c0.6-0.1,1.2-0.1,1.8-0.2c0.8-0.1,1.6,0.1,2.2,0.6c0.6,0.4,1,1,1.5,1.6
	c1.3,1.9,2.1,4,2.3,6.2c0.4,3.2,0,6.3-1.1,9.4C96.5,109.3,96.1,110.1,95.7,110.9z"/>
</svg>
