<?xml version="1.0" encoding="utf-8"?>
<!-- Generator: Adobe Illustrator 18.1.0, SVG Export Plug-In . SVG Version: 6.00 Build 0)  -->
<svg version="1.1" id="Layer_1" xmlns:ev="http://www.w3.org/2001/xml-events"
	 xmlns="http://www.w3.org/2000/svg" xmlns:xlink="http://www.w3.org/1999/xlink" x="0px" y="0px" viewBox="-68 101 162 99"
	 enable-background="new -68 101 162 99" xml:space="preserve">
<path d="M18.2,200h4.2c1.2,0,2.1-0.9,2.1-2.1v-36.7c4-0.3,8.6-0.4,12.4-0.4v37.2c0,1.2,1,2.1,2.1,2.1h4.2c1.2,0,2.1-0.9,2.1-2.1
	v-37.8l9.5,1.4c0,0,0,0.1,0,0.1v34.7c0,1.2,1,2.1,2.1,2.1c1.2,0,2.1-0.9,2.1-2.1v-34.2l12.7,1.9v30.5c0,1.2,1,2.1,2.1,2.1
	c1.2,0,2.1-0.9,2.1-2.1v-29.9l15,2.3c1.1,0.2,2.1-0.6,2-1.8l0-0.2c0-1.2-1-2.3-2.1-2.5l-5.8-1.2c-15-17.3-24.9-31-30.7-40
	c-4.6-7.1-7.5-12.3-9-15.2v-2c0-1.2-1-2.1-2.1-2.1H39c-1.2,0-2.1,0.9-2.1,2.1v0.6c-2.7,1-6.8,2.3-12.5,3.7c-0.3-0.8-1.1-1.5-2-1.5
	h-4.2c-1.2,0-2.1,0.9-2.1,2.1v1.3c-17.2,3.7-44.3,7.7-84.1,9l0.1,1.5c9-0.3,17.3-0.7,25-1.3v4.6c-7.5,1-15.8,1.9-24.9,2.6l0.1,1.5
	c9.1-0.7,17.3-1.6,24.8-2.6v8.9l-22.9-4.8c-1.1-0.2-2.1,0.5-2.1,1.7v9.1c0,1.2,0.9,2.2,2.1,2.4l82,12.5v39.6v2.6
	C16.1,197.8,15.8,200,18.2,200z M82.6,160.8l-9-1.9c-8.7-10.9-15-19.7-19.2-26.2c-4.6-7.1-7.5-12.3-9-15.2v-8.1
	C50,117.8,61,135.7,82.6,160.8z M-17.7,120.2c-3.6,0.7-7.4,1.4-11.7,2.1v-3.7c4.1-0.4,8-0.8,11.7-1.2V120.2z M-16.7,117.3
	c4.2-0.5,8.1-1,11.7-1.5v1.7c-3.3,0.8-7.2,1.7-11.7,2.6V117.3z M-17.7,121.7V140l-11.7-2.4v-13.7C-25.2,123.2-21.3,122.5-17.7,121.7
	z M-16.7,121.6c4.3-0.9,8.2-1.7,11.7-2.6v23.6l-11.7-2.4V121.6z M-4.1,118.8c4.7-1.2,8.6-2.2,11.7-3.2v29.6l-11.7-2.4V118.8z
	 M-3.5,117.1c-0.2,0-0.4,0.1-0.6,0.1v-1.6c4.3-0.6,8.2-1.3,11.7-1.9v0.3C4.7,114.9,1,115.9-3.5,117.1z M8.6,113.5
	c0.4-0.1,0.9-0.2,1.3-0.2c-0.4,0.1-0.8,0.3-1.3,0.4V113.5z M24.5,148.7V110c3.3-0.8,6.1-1.6,8.4-2.4v42.8L24.5,148.7z M36.9,151.3
	l-3-0.6v-43.3c1.1-0.4,2.2-0.7,3-1V151.3z M-42.1,119.6c4.1-0.3,8-0.6,11.7-0.9v3.7c-3.6,0.6-7.6,1.2-11.7,1.7V119.6z M-42.1,125.7
	c4.1-0.5,8.1-1.1,11.7-1.7v13.3l-11.7-2.4V125.7z M8.6,145.4v-30.1c3.7-1.1,6.2-2.1,7.5-2.6V147L8.6,145.4z M45.4,120.8
	c3.7,6.8,11.6,19.7,25.8,37.6L45.4,153V120.8z"/>
</svg>
