<?xml version="1.0" encoding="utf-8"?>
<!-- Generator: Adobe Illustrator 18.1.0, SVG Export Plug-In . SVG Version: 6.00 Build 0)  -->
<svg version="1.1" id="Layer_1" xmlns:ev="http://www.w3.org/2001/xml-events"
	 xmlns="http://www.w3.org/2000/svg" xmlns:xlink="http://www.w3.org/1999/xlink" x="0px" y="0px" viewBox="8.5 33.8 85 161.5"
	 enable-background="new 8.5 33.8 85 161.5" xml:space="preserve">
<path d="M88.7,112.4c-1.5,2.3-3.6,3.9-6.5,4.1c-5.5,0.4-9-4.8-6.6-9.8c2.7-5.5,3.8-11.3,2.6-17.4c-1.3-6.4-5.8-8.9-11.9-6.7
	c-5.8,2.1-9.5,6.4-11.1,12.3c-0.7,2.5-0.8,5.1-1.1,7.6c-0.1,0.9,0,1.9,0,2.8c0,28.9,0,28.9-3,28.8c-2.8-0.1-2.8-0.1-2.9-28.6
	c0-2.4-0.1-4.7-0.4-7.1c-1-7.9-6.4-14.6-12.9-16.1c-6-1.4-10.3,1.4-11.1,7.4c-0.8,5.6-0.3,11.2,2.5,16.2c2,3.6,1,7.5-2,9.5
	c-2.9,1.9-7,1.2-9.7-1.8c-7.7-8.2-7.8-23.6-0.3-32.5c7.5-9,19.2-9.7,28.5-1.8c4.6,3.9,7.3,8.8,8.5,14.7c1.3-5.6,3.6-10.4,7.9-14.2
	c12.5-11,29.8-5.7,33.8,10.5C94.6,98.2,93.1,105.6,88.7,112.4z M74.6,60.5c-1.9,2.5-4.8,4.6-7.7,5.7c-5.5,2.1-11.1,3.7-14.5,9.2
	c0.8-8.2,3.1-15.6,10.2-20.3c2.2-1.5,5.1-2.4,7.7-2.6C75,52.3,77.5,56.8,74.6,60.5z M31.8,41.4c-1.1-1.3-2-4.3-1.2-5.4
	c0.9-1.4,3.8-2.5,5.4-2.1c2.7,0.7,5.5,2.4,7.6,4.4c3.8,3.7,5.3,8.7,5.6,14c-2.9-3.8-6.8-5.6-11.1-7C35.8,44.4,33.4,43.1,31.8,41.4z
	 M57.1,164.7c0.6,1.6,1,3.4,1,5.3c0,2-0.4,3.9-1.1,5.6c8.4,2.6,14.6,10.4,14.6,19.7H30.4c0-9.3,6.1-17.1,14.6-19.7
	c-0.7-1.6-1.1-3.5-1.1-5.6c0-1.9,0.4-3.8,1-5.3c-17.9-2.1-31.5-13.1-31.5-26.3h75.3C88.7,151.7,75,162.6,57.1,164.7z"/>
</svg>
