<?xml version="1.0" encoding="utf-8"?>
<!-- Generator: Adobe Illustrator 18.1.0, SVG Export Plug-In . SVG Version: 6.00 Build 0)  -->
<svg version="1.1" id="Layer_1" xmlns:ev="http://www.w3.org/2001/xml-events"
	 xmlns="http://www.w3.org/2000/svg" xmlns:xlink="http://www.w3.org/1999/xlink" x="0px" y="0px" viewBox="-116 69 66 164"
	 enable-background="new -116 69 66 164" xml:space="preserve">
<path d="M-56.7,191.5c-3.7-24.1,6.6-68.8-11.3-98c-14.8-24.1-29.4-22.7-33.3,12.9c-3.7,34.3-13.5,71.9-14.2,106.5
	C-108.5,217.6-50.5,232.2-56.7,191.5z M-83.7,100.1c0-0.5,0.7-1,1-1.5c0.2,0.1,0.4,0.2,0.7,0.4c0,2.5,0,5,0,8.1
	c2.8-3.1,5.3-5.8,8-8.9c0.8,1.1,1.1,1.5,1.6,2.2c-2.6,2.6-5.2,5.2-7.9,7.6c-1.4,1.3-2.1,2.6-1.5,4.8c2.7-2.6,5.3-5.1,8-7.7
	c0.4,0.4,0.9,0.7,1.4,1.2c-2.5,2.5-4.7,4.9-7.1,7.1c-2,1.8-2.9,3.8-2.5,6.4c0.2,1.1,0,2.2,0,3.4c-1.2,0.5-1.8,0.3-1.8-1.1
	C-83.8,114.7-83.8,107.4-83.7,100.1z M-87.3,179.4c-1.8-0.7-3.5-1.4-5.4-2.1c0,6.3,0,12.2,0,18.5l-3.5,0.3c0-5.4-0.2-10.6,0.1-15.7
	c0.2-3.4-0.3-5.8-4.1-6.5c-0.7-0.1-1.4-0.7-2.3-1.2c0.4-0.8,0.8-1.6,1.3-2.4c1.7,0.6,3.2,1.2,5.1,2c0-4.2-0.1-8.1,0.1-12
	c0-0.8,1-1.6,1.6-2.4c0.6,0.8,1.6,1.5,1.6,2.3c0.2,3.2,0.3,6.5,0,9.7c-0.3,3,0.6,4.8,3.6,5.5c1.1,0.3,2,1,3.2,1.5
	C-86.4,177.7-86.8,178.5-87.3,179.4z M-75.7,173.3l6.3-5.9l1.2,0.4c-0.2,1.1-0.1,2.5-0.8,3.1c-2.1,2.2-4.4,4.2-6.7,6.4
	c-2.3-1.9-4.5-3.7-7-5.9c-0.1,1.2-0.3,2-0.3,2.8c0,6.5,0,12.9,0,19.4c0,1.8-0.2,3-2.7,2.1v-37.8c4.6-0.2,6.5,4.1,10.1,5.8
	c1.9-1.7,3.9-3.6,6.1-5.7c1.5,1,2.3,1.8,0.6,3.4c-2.2,2-4.2,4.3-6.5,6.7c-2.6-2.1-5-3.9-7.4-5.8C-84.7,168.9-78.7,169.9-75.7,173.3z
	 M-69.5,147.5c-5.3-5.9-10.9-12.1-16.4-18.3c-0.6,0.2-0.6,0.2-1.2,0.5c0,4.8,0.2,9.6-0.1,14.4c-0.1,1.2-1.5,2.3-2.3,3.5l-1.4-0.8
	V91.9c3.4-1.4,3.9,0.4,3.8,3c-0.1,6.4,0.6,12.9-0.2,19.2c-0.9,6.9,2.1,11.3,6.8,15.4c4.4,3.9,8.4,8.1,12.7,12.1
	C-65.6,143.8-65.1,145.5-69.5,147.5z"/>
</svg>
