<?xml version="1.0" encoding="utf-8"?>
<!-- Generator: Adobe Illustrator 18.1.0, SVG Export Plug-In . SVG Version: 6.00 Build 0)  -->
<svg version="1.1" id="Layer_1" xmlns:ev="http://www.w3.org/2001/xml-events"
	 xmlns="http://www.w3.org/2000/svg" xmlns:xlink="http://www.w3.org/1999/xlink" x="0px" y="0px" viewBox="-8 49.8 120 130.5"
	 enable-background="new -8 49.8 120 130.5" xml:space="preserve">
<path d="M54,52.6l1.4,2.5c0.4,0.7,0.2,1.6-0.5,2l-3.7,2.1c-0.7,0.4-1.6,0.2-2-0.5l-1.4-2.5L3.2,82l1.4,2.5c0.4,0.7,0.2,1.6-0.5,2
	l-3.7,2.1c-0.7,0.4-1.6,0.2-2-0.5L-3,85.6l-5,2.9l53,91.8l5-2.9l-1.4-2.5c-0.4-0.7-0.2-1.6,0.5-2l3.7-2.1c0.7-0.4,1.6-0.2,2,0.5
	l1.4,2.5l44.7-25.8l-1.4-2.5c-0.4-0.7-0.2-1.6,0.5-2l3.7-2.1c0.7-0.4,1.6-0.2,2,0.5l1.4,2.5l5-2.9L59,49.8L54,52.6z M50.4,163.9
	c0.4,0.7,0.2,1.6-0.5,2l-3.7,2.1c-0.7,0.4-1.6,0.2-2-0.5l-1.4-2.5c-0.4-0.7-0.2-1.6,0.5-2l3.7-2.1c0.7-0.4,1.6-0.2,2,0.5L50.4,163.9
	z M44.7,153.9c0.4,0.7,0.2,1.6-0.5,2l-3.7,2.1c-0.7,0.4-1.6,0.2-2-0.5l-1.4-2.5c-0.4-0.7-0.2-1.6,0.5-2l3.7-2.1
	c0.7-0.4,1.6-0.2,2,0.5L44.7,153.9z M39,144c0.4,0.7,0.2,1.6-0.5,2l-3.7,2.1c-0.7,0.4-1.6,0.2-2-0.5l-1.4-2.5
	c-0.4-0.7-0.2-1.6,0.5-2l3.7-2.1c0.7-0.4,1.6-0.2,2,0.5L39,144z M33.3,134.1c0.4,0.7,0.2,1.6-0.5,2l-3.7,2.1c-0.7,0.4-1.6,0.2-2-0.5
	l-1.4-2.5c-0.4-0.7-0.2-1.6,0.5-2l3.7-2.1c0.7-0.4,1.6-0.2,2,0.5L33.3,134.1z M27.5,124.2c0.4,0.7,0.2,1.6-0.5,2l-3.7,2.1
	c-0.7,0.4-1.6,0.2-2-0.5l-1.4-2.5c-0.4-0.7-0.2-1.6,0.5-2l3.7-2.1c0.7-0.4,1.6-0.2,2,0.5L27.5,124.2z M21.8,114.2
	c0.4,0.7,0.2,1.6-0.5,2l-3.7,2.1c-0.7,0.4-1.6,0.2-2-0.5l-1.4-2.5c-0.4-0.7-0.2-1.6,0.5-2l3.7-2.1c0.7-0.4,1.6-0.2,2,0.5L21.8,114.2
	z M16.1,104.3c0.4,0.7,0.2,1.6-0.5,2l-3.7,2.1c-0.7,0.4-1.6,0.2-2-0.5l-1.4-2.5c-0.4-0.7-0.2-1.6,0.5-2l3.7-2.1
	c0.7-0.4,1.6-0.2,2,0.5L16.1,104.3z M10.3,94.4c0.4,0.7,0.2,1.6-0.5,2l-3.7,2.1c-0.7,0.4-1.6,0.2-2-0.5l-1.4-2.5
	c-0.4-0.7-0.2-1.6,0.5-2l3.7-2.1c0.7-0.4,1.6-0.2,2,0.5L10.3,94.4z M101.3,134.5c0.4,0.7,0.2,1.6-0.5,2l-3.7,2.1
	c-0.7,0.4-1.6,0.2-2-0.5l-1.4-2.5c-0.4-0.7-0.2-1.6,0.5-2l3.7-2.1c0.7-0.4,1.6-0.2,2,0.5L101.3,134.5z M95.6,124.6
	c0.4,0.7,0.2,1.6-0.5,2l-3.7,2.1c-0.7,0.4-1.6,0.2-2-0.5l-1.4-2.5c-0.4-0.7-0.2-1.6,0.5-2l3.7-2.1c0.7-0.4,1.6-0.2,2,0.5L95.6,124.6
	z M89.8,114.7c0.4,0.7,0.2,1.6-0.5,2l-3.7,2.1c-0.7,0.4-1.6,0.2-2-0.5l-1.4-2.5c-0.4-0.7-0.2-1.6,0.5-2l3.7-2.1
	c0.7-0.4,1.6-0.2,2,0.5L89.8,114.7z M84.1,104.7c0.4,0.7,0.2,1.6-0.5,2l-3.7,2.1c-0.7,0.4-1.6,0.2-2-0.5l-1.4-2.5
	c-0.4-0.7-0.2-1.6,0.5-2l3.7-2.1c0.7-0.4,1.6-0.2,2,0.5L84.1,104.7z M78.4,94.8c0.4,0.7,0.2,1.6-0.5,2l-3.7,2.1
	c-0.7,0.4-1.6,0.2-2-0.5l-1.4-2.5c-0.4-0.7-0.2-1.6,0.5-2l3.7-2.1c0.7-0.4,1.6-0.2,2,0.5L78.4,94.8z M72.7,84.9
	c0.4,0.7,0.2,1.6-0.5,2L68.4,89c-0.7,0.4-1.6,0.2-2-0.5L65,86c-0.4-0.7-0.2-1.6,0.5-2l3.7-2.1c0.7-0.4,1.6-0.2,2,0.5L72.7,84.9z
	 M66.9,75c0.4,0.7,0.2,1.6-0.5,2l-3.7,2.1c-0.7,0.4-1.6,0.2-2-0.5l-1.4-2.5c-0.4-0.7-0.2-1.6,0.5-2l3.7-2.1c0.7-0.4,1.6-0.2,2,0.5
	L66.9,75z M61.2,65c0.4,0.7,0.2,1.6-0.5,2l-3.7,2.1c-0.7,0.4-1.6,0.2-2-0.5l-1.4-2.5c-0.4-0.7-0.2-1.6,0.5-2l3.7-2.1
	c0.7-0.4,1.6-0.2,2,0.5L61.2,65z"/>
</svg>
