<?xml version="1.0" encoding="utf-8"?>
<!-- Generator: Adobe Illustrator 18.1.0, SVG Export Plug-In . SVG Version: 6.00 Build 0)  -->
<svg version="1.1" id="Layer_1" xmlns:ev="http://www.w3.org/2001/xml-events"
	 xmlns="http://www.w3.org/2000/svg" xmlns:xlink="http://www.w3.org/1999/xlink" x="0px" y="0px" viewBox="2 55 100 120"
	 enable-background="new 2 55 100 120" xml:space="preserve">
<path d="M102,94.3c0-3.5-0.6-4.5-4.4-4.3c-3.1,0.1-6.2,0-9.4,0c-0.4,0-0.8,0-1.3,0c0-0.6,0-1,0-1.5c0-10,0-20.1,0-30.1
	c0-1.5-0.4-2.7-1.7-3.4c-17.2,0-34.4,0-51.5,0c-1.3,0.7-1.8,1.9-1.7,3.4c0.1,2.1,0,4.3,0,6.6c-0.8,0-1.5,0-2.3,0c-1.6,0-3.1,0-4.7,0
	c-2.2,0-3.1,0.9-3.1,3c0,2.3,0,4.5,0,6.9c-2.3,0-4.4,0-6.6,0c-2.6,0-3.4,0.8-3.4,3.4c0,9.1,0,18.1,0,27.2c0,0.8-0.2,1.4-0.8,1.9
	c-2.8,2.7-5.6,5.4-8.4,8.2c-0.5,0.5-0.8,1.5-0.8,2.3c-0.1,10.2,0,20.5,0,30.7c0,7.6,0,15.2,0,22.8c0,1.5,0.4,2.7,1.7,3.4
	c23.8,0,47.6,0,71.5,0c0.8-0.7,1.6-1.4,2.3-2.1c7.7-7.7,15.4-15.4,23.2-23c0.9-0.9,1.3-1.8,1.3-3.1C102,129.3,101.9,111.8,102,94.3z
	 M97,98.8C97,98.8,96.9,98.8,97,98.8C96.9,98.8,97,98.8,97,98.8L97,98.8z M87.5,108.1C87.5,108.1,87.5,108.1,87.5,108.1
	C87.5,108.1,87.5,108.1,87.5,108.1z M87,95.1c2.1,0,4,0,6,0c-2,2-4,4-6,6C87,99.2,87,97.2,87,95.1z M27.1,70.1c14.9,0,29.8,0,44.8,0
	c0,14.9,0,29.8,0,44.9c-1.6,0-3.2,0-4.9,0c0-0.5,0-0.9,0-1.3c0-11.8,0-23.5,0-35.3c0-2.6-0.8-3.4-3.4-3.4c-11.7,0-23.4,0-35.1,0
	c-0.4,0-0.8,0-1.4,0C27.1,73.3,27.1,71.7,27.1,70.1z M17.1,80.1c14.9,0,29.8,0,44.8,0c0,11.6,0,23.1,0,34.8c-15,0-29.8,0-44.8,0
	C17.1,103.4,17.1,91.8,17.1,80.1z M71.9,120.1L71.9,120.1c-21.7,0-43.2,0-64.9,0l0,0C28.7,120.1,50.2,120.1,71.9,120.1z M46.7,135
	c-2.4,0-4.8,0-7.1,0c-2.4,0-4.8,0-7.3,0c-1.7,0-2.8-1-2.8-2.5c0-1.5,1.1-2.5,2.8-2.5c4.8,0,9.6,0,14.4,0c1.7,0,2.8,1,2.8,2.5
	C49.5,134,48.4,135,46.7,135z M74,65c-5.9,0-11.7,0-17.6,0c-6.1,0-12.3,0-18.4,0c-0.3,0-0.6,0-1,0c0-1.7,0-3.3,0-4.9
	c14.9,0,29.8,0,44.9,0c0,5.7,0,11.2,0,16.8c0,9.2-0.1,18.3,0.1,27.5c0,1.6-0.5,2.6-1.5,3.5c-1.1,1-2.1,2.2-3.5,3.2
	c0-0.4,0-0.9,0-1.3c0-13.7,0-27.3,0-41c0-0.3,0-0.5,0-0.8C77,65.9,76.1,65,74,65z M77,121.3c0-0.8,0.1-1.4,0.2-2
	c0.1-0.2,0.1-0.4,0.2-0.6c-0.1,0.2-0.1,0.4-0.2,0.6C77,119.9,77,120.6,77,121.3c0,3.6,0,7.2,0,10.9C77,128.6,77,124.9,77,121.3z
	 M77,164.8c0-3.6,0-7.2,0-10.9C77,157.5,77,161.2,77,164.8c0,0.4,0,0.8,0,1.5l0,0C77,165.6,77,165.2,77,164.8z M77.4,166
	c0.2-0.1,0.3-0.3,0.4-0.4C77.7,165.7,77.5,165.8,77.4,166z M77.9,165.5c0.1-0.1,0.2-0.1,0.2-0.2c1.5-1.5,3-3,4.5-4.5
	c-1.5,1.5-3,3-4.5,4.5C78.1,165.3,78,165.4,77.9,165.5z M97,145.9c0-0.2,0-0.4,0-0.6c0-10.1,0-20.2,0-30.4c0,10.1,0,20.2,0,30.4
	C97,145.5,97,145.7,97,145.9z"/>
</svg>
