<?xml version="1.0" encoding="utf-8"?>
<!-- Generator: Adobe Illustrator 18.1.0, SVG Export Plug-In . SVG Version: 6.00 Build 0)  -->
<svg version="1.1" id="Layer_1" xmlns:ev="http://www.w3.org/2001/xml-events"
	 xmlns="http://www.w3.org/2000/svg" xmlns:xlink="http://www.w3.org/1999/xlink" x="0px" y="0px" viewBox="7.8 50.3 87.7 128.6"
	 enable-background="new 7.8 50.3 87.7 128.6" xml:space="preserve">
<path d="M54.2,50.3c0,0,7.2,6.2,2.2,17.4c-2.5,6.4-9.1,8.8-15.3,19c-6.3,10.2-4.6,16.1-6.1,21c-7.9-8.8,2.3-25.5-4.7-33.7
	c0.9,12.4-9.5,13.3-17.8,33.4c-14.3,44.2,4.8,71.6,40.7,71.6c29,0,46.4-21.7,41.4-58.2c-3.1-21.4-14.3-29.5-14.3-29.5
	s6,11.5-6.7,22.5c-1.1-3.6-2.6-7.2-4.3-10.6C63.6,91,70.3,84,69.2,72.8C68,61.6,61.8,50.3,54.2,50.3 M83.2,142.5
	c-3.8,17.7-14.9,24.8-31.9,24.8c-16.2,0-29.6-13.3-29.6-34.7c-0.5-12.3,3-19.2,7.4-25c0.4,10.7,4.6,14.6,8.7,16.9
	c1.3-11.2,14.3-17.1,14.8-31.7c3.4,0,14.1,13.2,11.8,23.9c-1.7,8.2,4.1,15.5,4.1,15.5c8.2-0.5,11.3-12.2,11.3-12.2
	S85.5,129.2,83.2,142.5z"/>
</svg>
