<?xml version="1.0" encoding="utf-8"?>
<!-- Generator: Adobe Illustrator 18.1.0, SVG Export Plug-In . SVG Version: 6.00 Build 0)  -->
<svg version="1.1" id="Layer_1" xmlns:ev="http://www.w3.org/2001/xml-events"
	 xmlns="http://www.w3.org/2000/svg" xmlns:xlink="http://www.w3.org/1999/xlink" x="0px" y="0px" viewBox="-10.5 53.7 120 121.6"
	 enable-background="new -10.5 53.7 120 121.6" xml:space="preserve">
<path d="M109.5,107.7h-9.1c0.1-0.9,0.1-1.9,0.1-2.8c0-6.8-1.3-13.2-3.8-19.1c4.5-1.6,7.8-5.9,7.8-10.9H90.6
	c-4.1-5.5-9.3-10.2-15.3-13.7c1.5-2,2.5-4.4,2.5-7.1H54.5c0,0.2,0,0.3,0,0.5c-1.5-0.1-3.1-0.2-4.7-0.2c-1.7,0-3.3,0.1-4.9,0.2
	c0-0.3,0-0.5,0-0.8H21.8c0,2.8,1,5.4,2.7,7.4c-6.1,3.5-11.4,8.3-15.5,14H-3.8c0,4.7,2.8,8.8,6.9,10.6c-2.4,5.9-3.8,12.4-3.8,19.2
	c0,0.9,0,1.7,0.1,2.6h-9.8c0,6.4,5.2,11.6,11.6,11.6c0.1,0,0.1,0,0.2,0c1.9,6.5,5.1,12.4,9.2,17.6H6c0,6.4,5.2,11.6,11.6,11.6
	c1.7,0,3.2-0.4,4.6-1c1.3,0.9,2.7,1.7,4.1,2.4l-8.8,19H6.8v6.5H92v-6.5H81.9l-8.8-18.9c1.4-0.7,2.7-1.5,4-2.3
	c1.2,0.4,2.5,0.7,3.9,0.7c6.4,0,11.6-5.2,11.6-11.6h-3.3c4.1-5.1,7.2-10.9,9.1-17.3C104.6,119,109.5,114,109.5,107.7z M33.4,65.3
	c0.2,0,0.4,0,0.6,0l11.1,30.5c-0.3,0.1-0.5,0.3-0.7,0.4L20.2,67.4c2-1.6,4.1-3,6.4-4.3C28.5,64.5,30.8,65.3,33.4,65.3z M66.1,65.6
	c2.7,0,5.2-0.9,7.1-2.5c2.2,1.3,4.4,2.7,6.4,4.3L55.5,96.2c-0.2-0.2-0.5-0.3-0.7-0.4l11-30.2C65.9,65.6,66,65.6,66.1,65.6z
	 M31.5,149.1l0.9-1.9l-0.7,2C31.6,149.1,31.6,149.1,31.5,149.1z M46.1,117.6l1.3-2.7c0.2,0.1,0.4,0.1,0.6,0.2l0,33.6h-11
	c0,0.8,0.1,1.6,0.3,2.4c-1-0.3-2-0.6-3-0.9L46.1,117.6z M50.7,148.6l0-33.5c0.3,0,0.6,0,0.9-0.1l12.9,35.4c-1.6,0.5-3.2,0.9-4.8,1.3
	c0.3-1,0.4-2,0.4-3.1H50.7L50.7,148.6z M67.1,149.6l-3.9-10.8l4.8,10.5C67.7,149.3,67.4,149.4,67.1,149.6z M59.7,108.2l27.9,4.9
	c1.6,3,4.5,5.3,8,6c-0.9,3-2.2,5.9-3.7,8.7L59.4,109C59.5,108.7,59.6,108.5,59.7,108.2z M86.5,110.1l-26.3-4.6
	c0-0.2,0.1-0.4,0.1-0.6c0-0.1,0-0.2,0-0.3l37-6.5c0.3,2.2,0.5,4.5,0.5,6.8c0,0.9,0,1.9-0.1,2.8H86.3
	C86.3,108.5,86.4,109.4,86.5,110.1z M96.8,95.4l-37,6.5c-0.1-0.3-0.2-0.6-0.3-0.9L87.3,85c1.7,0.9,3.6,1.5,5.6,1.5
	c0.4,0,0.8,0,1.1-0.1C95.2,89.3,96.2,92.3,96.8,95.4z M87.1,74.8h-5.8c0,3.3,1.4,6.3,3.6,8.4L58.1,98.7c-0.2-0.2-0.4-0.4-0.5-0.7
	l24.2-28.8C83.7,70.9,85.5,72.8,87.1,74.8z M63,65.2L52.2,94.8c-0.3-0.1-0.6-0.1-0.9-0.1V57.1c1.3,0,2.5,0.1,3.7,0.2
	C56.1,61.1,59.1,64.1,63,65.2z M48.5,57.1v37.6c-0.3,0-0.6,0.1-0.8,0.1l-10.9-30c3.6-1.1,6.5-3.9,7.6-7.5
	C45.7,57.2,47.1,57.1,48.5,57.1z M18.1,69.1l24.2,28.8c-0.2,0.2-0.3,0.4-0.5,0.6l-26-15c2.2-2.1,3.6-5.1,3.6-8.4h-7
	C14.1,73,16,71,18.1,69.1z M7.8,86.7c2,0,3.9-0.5,5.6-1.4l27,15.6c-0.1,0.2-0.1,0.5-0.2,0.7L3,95.1c0.6-2.9,1.5-5.8,2.6-8.5
	C6.4,86.7,7.1,86.7,7.8,86.7z M2,104.9c0-2.4,0.2-4.8,0.5-7.1l37,6.5c0,0.2-0.1,0.4-0.1,0.6c0,0.1,0,0.2,0,0.2l-27.1,4.8
	c0.2-0.8,0.3-1.6,0.3-2.4H2.1C2,106.6,2,105.8,2,104.9z M11.4,112.9l28.6-5c0.1,0.3,0.2,0.5,0.3,0.8L7.7,127.5
	c-1.5-2.8-2.7-5.7-3.6-8.7C7.2,117.9,9.9,115.8,11.4,112.9z M9,129.9l32.5-18.8c0.1,0.1,0.2,0.2,0.3,0.4l-21.2,25.2h-6.6
	C12.2,134.6,10.5,132.3,9,129.9z M24.9,145.7c2.6-2.1,4.3-5.4,4.3-9h-4.9l18.1-21.6l-14.9,32.2C26.6,146.8,25.8,146.3,24.9,145.7z
	 M77.1,168.8H22.4l7.9-17.2c2.6,1.1,5.2,1.9,8,2.6c2,3.6,5.8,6.1,10.2,6.1c4.1,0,7.8-2.2,9.8-5.5c3.8-0.6,7.4-1.7,10.8-3.1
	L77.1,168.8z M72,147.3l-14-30.2l16.4,19.5h-4.9c0,3.9,1.9,7.3,4.9,9.4C73.5,146.5,72.8,146.9,72,147.3z M77.9,136.6l-20.6-24.6
	c0.2-0.2,0.4-0.5,0.6-0.7l32.6,18.8c-1.4,2.3-3,4.5-4.8,6.5H77.9z"/>
</svg>
